<svg width="26" height="26" viewBox="0 0 26 26" fill="none" xmlns="http://www.w3.org/2000/svg">
<g clip-path="url(#clip0)">
<path d="M24.8073 23.6307H1.18159C0.52884 23.6307 0 24.1595 0 24.8129C0 25.4651 0.52884 25.9939 1.18159 25.9939H24.8068C25.4595 25.9939 25.9884 25.4651 25.9884 24.8129C25.9878 24.1595 25.459 23.6307 24.8073 23.6307Z" fill="#1869BB"/>
<path d="M2.65803 20.5589C2.00528 20.5589 1.47644 21.0878 1.47644 21.7405C1.47644 22.3933 2.00528 22.9227 2.65803 22.9227H23.3304C23.9831 22.9227 24.512 22.3933 24.512 21.7405C24.512 21.0878 23.9831 20.5589 23.3304 20.5589H23.0355V9.92682H23.3304C23.6573 9.92682 23.9206 9.6624 23.9206 9.33658C23.9206 9.01076 23.6562 8.74634 23.3304 8.74634H2.65803C2.33166 8.74634 2.06779 9.01076 2.06779 9.33658C2.06779 9.6624 2.33221 9.92682 2.65803 9.92682H2.95343V20.5584H2.65803V20.5589ZM20.6723 9.92682V20.5584H17.1287V9.92682H20.6723ZM14.7655 9.92682V20.5584H11.2218V9.92682H14.7655ZM5.31551 9.92682H8.85918V20.5584H5.31551V9.92682Z" fill="#1869BB"/>
<path d="M1.18161 7.68457H24.8068C24.8107 7.68457 24.8151 7.68457 24.8184 7.68457C25.4717 7.68457 26 7.15573 26 6.50298C26 5.9841 25.6659 5.54432 25.2018 5.385L13.4799 0.110435C13.1718 -0.0278599 12.8194 -0.0278599 12.5107 0.110435L0.697029 5.42594C0.188657 5.65495 -0.090699 6.20703 0.0265751 6.75136C0.143296 7.29569 0.624562 7.68457 1.18161 7.68457Z" fill="#1869BB"/>
</g>
<defs>
<clipPath id="clip0">
<rect width="26" height="26" fill="white"/>
</clipPath>
</defs>
</svg>
