<svg width="15" height="15" viewBox="0 0 15 15" fill="none" xmlns="http://www.w3.org/2000/svg">
<g clip-path="url(#clip0)">
<path d="M5.29878 8.27543C5.29878 8.08753 5.14636 7.9353 4.95831 7.9353H3.77021C3.58238 7.9353 3.42993 8.08753 3.42993 8.27543V9.46335C3.42993 9.65156 3.58238 9.80385 3.77021 9.80385H4.95831C5.14636 9.80385 5.29878 9.65156 5.29878 9.46335V8.27543Z" fill="#63BB40"/>
<path d="M8.26809 8.27543C8.26809 8.08753 8.11565 7.9353 7.92796 7.9353H6.7397C6.55186 7.9353 6.39941 8.08753 6.39941 8.27543V9.46335C6.39941 9.65156 6.55186 9.80385 6.7397 9.80385H7.92796C8.11565 9.80385 8.26809 9.65156 8.26809 9.46335V8.27543Z" fill="#63BB40"/>
<path d="M11.2375 8.27543C11.2375 8.08753 11.0851 7.9353 10.8972 7.9353H9.70915C9.52104 7.9353 9.36865 8.08753 9.36865 8.27543V9.46335C9.36865 9.65156 9.52104 9.80385 9.70915 9.80385H10.8972C11.0851 9.80385 11.2375 9.65156 11.2375 9.46335V8.27543Z" fill="#63BB40"/>
<path d="M5.29878 11.2449C5.29878 11.0567 5.14636 10.9045 4.95831 10.9045H3.77021C3.58238 10.9045 3.42993 11.0567 3.42993 11.2449V12.4326C3.42993 12.6206 3.58238 12.7729 3.77021 12.7729H4.95831C5.14636 12.7729 5.29878 12.6206 5.29878 12.4326V11.2449Z" fill="#63BB40"/>
<path d="M8.26809 11.2449C8.26809 11.0567 8.11565 10.9045 7.92796 10.9045H6.7397C6.55186 10.9045 6.39941 11.0567 6.39941 11.2449V12.4326C6.39941 12.6206 6.55186 12.7729 6.7397 12.7729H7.92796C8.11565 12.7729 8.26809 12.6206 8.26809 12.4326V11.2449Z" fill="#63BB40"/>
<path d="M11.2375 11.2449C11.2375 11.0567 11.0851 10.9045 10.8973 10.9045H9.70915C9.52104 10.9045 9.36865 11.0567 9.36865 11.2449V12.4326C9.36865 12.6206 9.52104 12.7729 9.70915 12.7729H10.8973C11.0851 12.7729 11.2375 12.6206 11.2375 12.4326V11.2449Z" fill="#63BB40"/>
<path d="M13.3619 1.67021V3.4847C13.3619 4.30483 12.6965 4.96573 11.8766 4.96573H10.9396C10.1194 4.96573 9.44532 4.30483 9.44532 3.4847V1.6637H5.22207V3.4847C5.22207 4.30483 4.54797 4.96573 3.72802 4.96573H2.79084C1.97087 4.96573 1.30557 4.30483 1.30557 3.4847V1.67021C0.588903 1.69181 0 2.28483 0 3.01373V13.6475C0 14.3901 0.601901 15 1.3445 15H13.3229C14.0644 15 14.6674 14.3888 14.6674 13.6475V3.01373C14.6674 2.28483 14.0786 1.69181 13.3619 1.67021ZM12.9266 12.9853C12.9266 13.3063 12.6664 13.5666 12.3454 13.5666H2.29639C1.97535 13.5666 1.71514 13.3063 1.71514 12.9853V7.49259C1.71514 7.17154 1.97532 6.91118 2.29639 6.91118H12.3454C12.6664 6.91118 12.9266 7.17154 12.9266 7.49259V12.9853Z" fill="#63BB40"/>
<path d="M2.78749 3.99296H3.7143C3.99562 3.99296 4.22371 3.76519 4.22371 3.48388V0.509255C4.22371 0.22791 3.99562 0 3.7143 0H2.78749C2.50614 0 2.27808 0.22791 2.27808 0.509255V3.48388C2.27808 3.76519 2.50614 3.99296 2.78749 3.99296Z" fill="#63BB40"/>
<path d="M10.9276 3.99296H11.8544C12.1355 3.99296 12.3636 3.76519 12.3636 3.48388V0.509255C12.3636 0.22791 12.1355 0 11.8544 0H10.9276C10.6463 0 10.4182 0.22791 10.4182 0.509255V3.48388C10.4182 3.76519 10.6463 3.99296 10.9276 3.99296Z" fill="#63BB40"/>
</g>
<defs>
<clipPath id="clip0">
<rect width="15" height="15" fill="white"/>
</clipPath>
</defs>
</svg>
