<svg width="16" height="16" viewBox="0 0 16 16" fill="none" xmlns="http://www.w3.org/2000/svg">
<circle cx="8" cy="8" r="8" fill="#62B54D"/>
<g clip-path="url(#clip0)">
<path d="M12.8194 5.22581L11.942 4.3484C11.8216 4.22801 11.6753 4.16779 11.5033 4.16779C11.3312 4.16779 11.1849 4.22801 11.0646 4.3484L6.83226 8.58712L4.93547 6.68387C4.81503 6.56343 4.6688 6.50327 4.49681 6.50327C4.32471 6.50327 4.17849 6.56343 4.05805 6.68387L3.18064 7.5613C3.0602 7.68172 3 7.82799 3 8.00007C3 8.17201 3.0602 8.31841 3.18064 8.43881L5.51608 10.7742L6.39355 11.6516C6.51393 11.7721 6.6602 11.8323 6.83226 11.8323C7.00424 11.8323 7.15052 11.7719 7.27096 11.6516L8.14841 10.7742L12.8194 6.10328C12.9397 5.98284 13 5.83659 13 5.66451C13.0001 5.49252 12.9397 5.34625 12.8194 5.22581Z" fill="white"/>
</g>
<defs>
<clipPath id="clip0">
<rect width="10" height="10" fill="white" transform="translate(3 3)"/>
</clipPath>
</defs>
</svg>
