<svg width="14" height="14" viewBox="0 0 14 14" fill="none" xmlns="http://www.w3.org/2000/svg">
<path d="M13.7471 3.11612L12.5187 1.88775C12.3503 1.7192 12.1455 1.63489 11.9047 1.63489C11.6637 1.63489 11.4588 1.7192 11.2904 1.88775L5.36516 7.82195L2.70966 5.15741C2.54104 4.98879 2.33632 4.90457 2.09554 4.90457C1.8546 4.90457 1.64988 4.98879 1.48126 5.15741L0.252899 6.3858C0.0842785 6.55439 0 6.75917 0 7.00008C0 7.2408 0.0842785 7.44577 0.252899 7.61433L3.52252 10.8839L4.75098 12.1122C4.9195 12.2809 5.12428 12.3651 5.36516 12.3651C5.60594 12.3651 5.81072 12.2807 5.97934 12.1122L7.20777 10.8839L13.7471 4.34458C13.9156 4.17596 14 3.97121 14 3.7303C14.0001 3.48952 13.9156 3.28474 13.7471 3.11612Z" fill="#62B54D"/>
</svg>
