<svg width="10" height="18" viewBox="0 0 10 18" fill="none" xmlns="http://www.w3.org/2000/svg">
<path d="M2.61556 3.48601C2.61556 3.93962 2.61556 5.96425 2.61556 5.96425H0.799927V8.99464H2.61556V17.9999H6.34525V8.99489H8.84804C8.84804 8.99489 9.08244 7.54184 9.19606 5.95307C8.8703 5.95307 6.35935 5.95307 6.35935 5.95307C6.35935 5.95307 6.35935 4.19008 6.35935 3.88107C6.35935 3.57138 6.766 3.15481 7.16792 3.15481C7.56909 3.15481 8.41578 3.15481 9.19999 3.15481C9.19999 2.74222 9.19999 1.31662 9.19999 1.0825e-08C8.15309 1.0825e-08 6.96206 1.0825e-08 6.43706 1.0825e-08C2.52336 -0.000209236 2.61556 3.0332 2.61556 3.48601Z" fill="#59BC47"/>
</svg>
