<svg width="13" height="23" viewBox="0 0 13 23" fill="none" xmlns="http://www.w3.org/2000/svg">
<path d="M3.40024 4.45435C3.40024 5.03396 3.40024 7.62099 3.40024 7.62099H1.03992V11.4932H3.40024V22.9999H8.24884V11.4935H11.5025C11.5025 11.4935 11.8072 9.6368 11.9549 7.6067C11.5314 7.6067 8.26717 7.6067 8.26717 7.6067C8.26717 7.6067 8.26717 5.35399 8.26717 4.95914C8.26717 4.56343 8.79581 4.03115 9.31831 4.03115C9.83983 4.03115 10.9405 4.03115 11.96 4.03115C11.96 3.50395 11.96 1.68235 11.96 1.38319e-08C10.599 1.38319e-08 9.05069 1.38319e-08 8.36819 1.38319e-08C3.28038 -0.000267357 3.40024 3.87576 3.40024 4.45435Z" fill="white"/>
</svg>
