<svg width="23" height="23" viewBox="0 0 23 23" fill="none" xmlns="http://www.w3.org/2000/svg">
<path d="M16.6526 0H6.34699C2.84726 0 0 2.8474 0 6.34713V16.6528C0 20.1526 2.84726 22.9999 6.34699 22.9999H16.6526C20.1526 22.9999 22.9999 20.1525 22.9999 16.6528V6.34713C23 2.8474 20.1526 0 16.6526 0ZM20.9594 16.6528C20.9594 19.0274 19.0274 20.9593 16.6528 20.9593H6.34699C3.97248 20.9594 2.04066 19.0274 2.04066 16.6528V6.34713C2.04066 3.97262 3.97248 2.04066 6.34699 2.04066H16.6526C19.0273 2.04066 20.9593 3.97262 20.9593 6.34713V16.6528H20.9594Z" fill="white"/>
<path d="M11.5 5.57349C8.23206 5.57349 5.57349 8.23206 5.57349 11.5C5.57349 14.7678 8.23206 17.4263 11.5 17.4263C14.7678 17.4263 17.4265 14.7678 17.4265 11.5C17.4265 8.23206 14.7678 5.57349 11.5 5.57349ZM11.5 15.3854C9.35741 15.3854 7.61414 13.6425 7.61414 11.4998C7.61414 9.35714 9.35727 7.61401 11.5 7.61401C13.6426 7.61401 15.3858 9.35714 15.3858 11.4998C15.3858 13.6425 13.6425 15.3854 11.5 15.3854Z" fill="white"/>
<path d="M17.6749 3.84326C17.2817 3.84326 16.8956 4.00243 16.6179 4.28132C16.3388 4.55886 16.1785 4.94522 16.1785 5.33974C16.1785 5.73306 16.339 6.11928 16.6179 6.39817C16.8954 6.6757 17.2817 6.83623 17.6749 6.83623C18.0695 6.83623 18.4544 6.6757 18.7334 6.39817C19.0122 6.11928 19.1714 5.73292 19.1714 5.33974C19.1714 4.94522 19.0122 4.55886 18.7334 4.28132C18.4559 4.00243 18.0695 3.84326 17.6749 3.84326Z" fill="white"/>
</svg>
