<svg width="187" height="66" viewBox="0 0 187 66" fill="none" xmlns="http://www.w3.org/2000/svg">
<path fill-rule="evenodd" clip-rule="evenodd" d="M3.95707 32.85C3.95707 17.0753 44.9516 3.74937 93.4945 3.74937C142.038 3.74937 183.043 17.0753 183.043 32.85C183.043 48.6247 142.032 61.9452 93.4945 61.9452C44.957 61.9452 3.95707 48.6247 3.95707 32.85ZM93.4945 64.7055C145.366 64.7055 186 50.7127 186 32.85C186 14.9873 145.366 1 93.4945 1C41.6228 1 1 14.9873 1 32.85C1 50.7127 41.6283 64.7055 93.4945 64.7055V64.7055Z" fill="#ED1C24" stroke="#231F20"/>
<path d="M129.1 35.8345C128.719 36.4084 128.174 36.8542 127.536 37.1135C126.805 37.3526 126.037 37.4617 125.268 37.436C124.448 37.4498 123.649 37.1708 123.016 36.6489C122.34 36.0704 121.842 35.3124 121.578 34.4625H136.413L136.539 32.7681C136.544 31.6959 136.396 30.6286 136.101 29.5978C136.101 29.5541 136.074 29.5049 136.058 29.4557C136.061 29.4248 136.061 29.3937 136.058 29.3628C135.956 29.036 135.838 28.7149 135.702 28.4008V28.4008C135.642 28.2532 135.571 28.1111 135.506 27.9744C134.939 26.8176 134.179 25.7658 133.259 24.8643C131.141 22.7668 128.281 21.5901 125.301 21.5901C122.32 21.5901 119.46 22.7668 117.342 24.8643C116.811 25.3878 116.328 25.9587 115.899 26.5697C114.954 27.9923 114.343 29.6106 114.112 31.3032C114.052 31.8002 114.023 32.3003 114.025 32.8009C114.008 34.2633 114.293 35.7135 114.863 37.0605C115.433 38.4074 116.275 39.622 117.337 40.6281C119.093 42.3583 121.365 43.4693 123.809 43.7928C126.253 44.1163 128.736 43.6347 130.881 42.4209C131.83 41.8681 132.723 41.2257 133.549 40.5024C134.779 39.1854 135.675 37.5919 136.162 35.8563H129.176L129.1 35.8345ZM122.972 28.8818C123.624 28.3436 124.444 28.0515 125.29 28.0564C126.148 28.0473 126.986 28.3158 127.678 28.8217C128.398 29.3584 128.923 30.1141 129.176 30.9752H121.595C121.817 30.1476 122.3 29.4136 122.972 28.8818V28.8818Z" fill="#ED1C24" stroke="#231F20"/>
<path d="M43.4373 35.9658C43.0135 35.9643 42.6076 35.795 42.3084 35.4948C42.0093 35.1946 41.8413 34.7881 41.8413 34.3643V22.1643H33.9211V36.6326C33.9211 38.4882 34.6583 40.2678 35.9703 41.5798C37.2824 42.8919 39.062 43.629 40.9175 43.629H48.2802V35.9767L43.4373 35.9658Z" fill="#ED1C24" stroke="#231F20"/>
<path d="M148.225 29.8275C147.801 29.8289 147.395 29.9983 147.096 30.2985C146.797 30.5987 146.629 31.0052 146.629 31.429V43.629H138.714V29.1497C138.714 27.2951 139.451 25.5164 140.761 24.2044C142.072 22.8925 143.851 22.1548 145.705 22.1533H153.073V29.8056L148.225 29.8275Z" fill="#ED1C24" stroke="#231F20"/>
<path d="M107.012 14.3918V22.312H111.931V29.5543H107.012V34.8727C106.956 35.4683 107.122 36.0636 107.476 36.5453C107.648 36.7173 107.854 36.8511 108.081 36.9377C108.308 37.0244 108.551 37.062 108.794 37.0481C109.388 37.0348 109.98 36.9597 110.559 36.824C111.158 36.7122 111.738 36.521 112.286 36.2556L115.511 42.0057C114.207 42.6617 112.834 43.1696 111.417 43.5198C110.145 43.841 108.838 44.0098 107.526 44.0227C106.379 44.0727 105.234 43.8854 104.162 43.4725C103.091 43.0596 102.117 42.43 101.3 41.6231C99.7202 40.0216 98.9331 37.8298 98.9331 35.0312V14.3918H107.012Z" fill="#ED1C24" stroke="#231F20"/>
<path d="M93.7678 24.9683C91.6495 22.8721 88.7896 21.6963 85.8094 21.6963C82.8292 21.6963 79.9694 22.8721 77.851 24.9683C76.7921 25.9931 75.9548 27.2243 75.3907 28.5856C74.8266 29.947 74.5478 31.4096 74.5715 32.883V51.3141H82.672V32.8994C82.6513 32.4717 82.7242 32.0448 82.8856 31.6482C83.0471 31.2517 83.2931 30.8952 83.6067 30.6037C84.2155 30.0448 85.0159 29.7415 85.8422 29.7565C86.2608 29.7467 86.677 29.8227 87.0652 29.9796C87.4534 30.1366 87.8055 30.3713 88.0996 30.6693C88.3981 30.9577 88.6337 31.3046 88.7918 31.6884C88.9498 32.0722 89.0268 32.4844 89.0179 32.8994C89.0269 33.3114 88.9459 33.7205 88.7807 34.098C88.6156 34.4756 88.3701 34.8127 88.0614 35.0857C87.463 35.6492 86.6695 35.9588 85.8477 35.9494C85.2946 35.9616 84.7475 35.8337 84.2571 35.5777V44.1045C85.5398 44.2083 86.8308 44.1106 88.0833 43.8148V43.8148C90.2483 43.3947 92.2356 42.3296 93.7842 40.7594C94.8375 39.7318 95.6746 38.5039 96.2461 37.1479C96.8176 35.792 97.1121 34.3353 97.1121 32.8638C97.1121 31.3923 96.8176 29.9357 96.2461 28.5797C95.6746 27.2238 94.8375 25.9958 93.7842 24.9683H93.7678Z" fill="#ED1C24" stroke="#231F20"/>
<path d="M69.1875 24.9847C67.072 22.8895 64.2148 21.7141 61.2373 21.7141C58.2598 21.7141 55.4027 22.8895 53.2871 24.9847C52.2151 26.0052 51.3663 27.2369 50.7944 28.602C50.2224 29.967 49.9396 31.4359 49.9638 32.9157C49.9602 33.9521 50.1 34.9841 50.3793 35.9821C50.9073 37.8092 51.9107 39.4634 53.2871 40.7758C54.5845 42.0801 56.1843 43.0434 57.9441 43.5798C58.2775 43.6782 58.6273 43.7547 58.9826 43.8258L59.2395 43.864C59.4691 43.9023 59.6987 43.9351 59.9282 43.9569C60.8915 44.0912 61.8636 44.1515 62.8361 44.1373V35.5777C62.3861 35.8278 61.8806 35.9612 61.3658 35.9657H61.1198C60.338 35.9447 59.5911 35.6374 59.0209 35.1021C58.7141 34.8278 58.4702 34.4904 58.306 34.113C58.1419 33.7357 58.0613 33.3272 58.0698 32.9157C58.0612 32.5013 58.1378 32.0896 58.2948 31.706C58.4519 31.3224 58.686 30.9751 58.9826 30.6856C59.2764 30.3886 59.6275 30.1545 60.0147 29.9976C60.4019 29.8406 60.8169 29.7642 61.2346 29.7728C62.0591 29.7587 62.8576 30.062 63.4647 30.6201C63.7766 30.9126 64.0213 31.2693 64.1817 31.6657C64.3422 32.0621 64.4146 32.4886 64.3939 32.9157V44.1209H72.4944V32.8994C72.5146 31.424 72.2315 29.9602 71.6626 28.5987C71.0938 27.2372 70.2514 26.0071 69.1875 24.9847Z" fill="#ED1C24" stroke="#231F20"/>
<path d="M159.785 19.1089C159.791 19.6765 159.571 20.223 159.173 20.6284C158.98 20.82 158.752 20.9722 158.501 21.0766C158.232 21.187 157.944 21.2428 157.654 21.2406C157.365 21.2432 157.079 21.1875 156.812 21.0766C156.56 20.9735 156.332 20.8211 156.14 20.6284C155.742 20.223 155.522 19.6765 155.527 19.1089C155.524 18.8183 155.58 18.5301 155.691 18.2617C155.796 18.009 155.948 17.7789 156.14 17.5839C156.333 17.39 156.563 17.2374 156.817 17.1357C157.357 16.9245 157.956 16.9245 158.495 17.1357C158.749 17.2388 158.979 17.3911 159.173 17.5839C159.365 17.7789 159.517 18.009 159.621 18.2617C159.733 18.5301 159.789 18.8183 159.785 19.1089V19.1089ZM159.578 19.1089C159.58 18.8465 159.53 18.5864 159.43 18.3437C159.34 18.1148 159.202 17.9079 159.026 17.737C158.851 17.5619 158.643 17.4242 158.413 17.3325C157.926 17.1355 157.381 17.1355 156.894 17.3325C156.667 17.4259 156.461 17.5634 156.287 17.7369C156.114 17.9105 155.976 18.1167 155.883 18.3437C155.686 18.833 155.686 19.3794 155.883 19.8687C155.975 20.097 156.112 20.3045 156.286 20.4791C156.459 20.6537 156.666 20.7918 156.894 20.8853C157.381 21.0823 157.926 21.0823 158.413 20.8853C158.642 20.7916 158.85 20.6542 159.026 20.4809C159.201 20.307 159.339 20.0985 159.43 19.8687C159.522 19.6262 159.565 19.368 159.556 19.1089H159.578Z" fill="#231F20"/>
<path d="M156.62 17.5894V20.541H156.872V19.3111H157.746C157.746 19.3111 158.293 20.4043 158.381 20.5683H158.692C158.534 20.2622 158.053 19.3111 158.053 19.3111L158.233 19.2619C158.398 19.2143 158.545 19.117 158.654 18.9832C158.768 18.8245 158.824 18.6316 158.812 18.4366C158.817 18.3071 158.793 18.1783 158.741 18.0594C158.698 17.963 158.635 17.8772 158.555 17.808C158.469 17.7407 158.371 17.6906 158.266 17.6604C158.148 17.6215 158.024 17.603 157.9 17.6058L156.62 17.5894ZM156.872 17.8244H157.883C158.052 17.8196 158.217 17.8715 158.353 17.972C158.423 18.0268 158.478 18.0977 158.514 18.1786C158.551 18.2596 158.567 18.3481 158.561 18.4366C158.568 18.5273 158.552 18.6183 158.515 18.7014C158.477 18.7844 158.42 18.8569 158.348 18.9121C158.213 19.0091 158.049 19.059 157.883 19.0542H156.872V17.8244Z" fill="black"/>
</svg>
