<svg width="121" height="39" viewBox="0 0 121 39" fill="none" xmlns="http://www.w3.org/2000/svg">
<path d="M96.1789 22.4431C95.7979 23.017 95.2529 23.4628 94.6149 23.7221C93.8839 23.9612 93.1159 24.0703 92.3469 24.0446C91.5269 24.0584 90.7279 23.7794 90.0949 23.2575C89.4189 22.679 88.9209 21.921 88.6569 21.0711H103.492L103.618 19.3767C103.623 18.3045 103.475 17.2372 103.18 16.2064C103.18 16.1627 103.153 16.1135 103.137 16.0643C103.14 16.0334 103.14 16.0023 103.137 15.9714C103.035 15.6446 102.917 15.3235 102.781 15.0094C102.721 14.8618 102.65 14.7197 102.585 14.583C102.018 13.4262 101.258 12.3744 100.338 11.4729C98.2199 9.37543 95.3599 8.19873 92.3799 8.19873C89.3989 8.19873 86.5389 9.37543 84.4209 11.4729C83.8899 11.9964 83.4069 12.5673 82.9779 13.1783C82.0329 14.6009 81.4219 16.2192 81.1909 17.9118C81.1309 18.4088 81.1019 18.9089 81.1039 19.4095C81.0869 20.8719 81.3719 22.3221 81.9419 23.6691C82.5119 25.016 83.3539 26.2306 84.4159 27.2367C86.1719 28.9669 88.4439 30.0779 90.8879 30.4014C93.3319 30.7249 95.8149 30.2433 97.9599 29.0295C98.9089 28.4767 99.8019 27.8343 100.628 27.111C101.858 25.794 102.754 24.2005 103.241 22.4649H96.2549L96.1789 22.4431ZM90.0509 15.4904C90.7029 14.9522 91.5229 14.6601 92.3689 14.665C93.2269 14.6559 94.0649 14.9244 94.7569 15.4303C95.4769 15.967 96.0019 16.7227 96.2549 17.5838H88.6739C88.8959 16.7562 89.3789 16.0222 90.0509 15.4904Z" fill="#ED1C24" stroke="#231F20"/>
<path d="M10.5162 22.574C10.0924 22.5725 9.6865 22.4032 9.3873 22.103C9.0882 21.8028 8.9202 21.3963 8.9202 20.9725V8.77246H1V23.2408C1 25.0964 1.7372 26.876 3.0492 28.188C4.3613 29.5001 6.1409 30.2372 7.9964 30.2372H15.3591V22.5849L10.5162 22.574Z" fill="#ED1C24" stroke="#231F20"/>
<path d="M115.304 16.4359C114.88 16.4373 114.474 16.6067 114.175 16.9069C113.876 17.2071 113.708 17.6136 113.708 18.0374V30.2374H105.793V15.7581C105.793 13.9035 106.53 12.1248 107.84 10.8128C109.151 9.50092 110.93 8.76322 112.784 8.76172H120.152V16.414L115.304 16.4359Z" fill="#ED1C24" stroke="#231F20"/>
<path d="M74.0909 1V8.9202H79.0099V16.1625H74.0909V21.4809C74.0349 22.0765 74.2009 22.6718 74.5549 23.1535C74.7269 23.3255 74.9329 23.4593 75.1599 23.5459C75.3869 23.6326 75.6299 23.6702 75.8729 23.6563C76.4669 23.643 77.0589 23.5679 77.6379 23.4322C78.2369 23.3204 78.8169 23.1292 79.3649 22.8638L82.5899 28.6139C81.2859 29.2699 79.9129 29.7778 78.4959 30.128C77.2239 30.4492 75.9169 30.618 74.6049 30.6309C73.4579 30.6809 72.3129 30.4936 71.2409 30.0807C70.1699 29.6678 69.1959 29.0382 68.3789 28.2313C66.7991 26.6298 66.012 24.438 66.012 21.6394V1H74.0909Z" fill="#ED1C24" stroke="#231F20"/>
<path d="M60.8466 11.5767C58.7283 9.48049 55.8684 8.30469 52.8882 8.30469C49.908 8.30469 47.0482 9.48049 44.9298 11.5767C43.8709 12.6015 43.0336 13.8327 42.4695 15.194C41.9054 16.5554 41.6266 18.018 41.6503 19.4914V37.9225H49.7508V19.5078C49.7301 19.0801 49.803 18.6532 49.9644 18.2566C50.1259 17.8601 50.3719 17.5036 50.6855 17.2121C51.2943 16.6532 52.0947 16.3499 52.921 16.3649C53.3396 16.3551 53.7558 16.4311 54.144 16.588C54.5322 16.745 54.8843 16.9797 55.1784 17.2777C55.4769 17.5661 55.7125 17.913 55.8706 18.2968C56.0286 18.6806 56.1056 19.0928 56.0967 19.5078C56.1057 19.9198 56.0247 20.3289 55.8595 20.7064C55.6944 21.084 55.4489 21.4211 55.1402 21.6941C54.5418 22.2576 53.7483 22.5672 52.9265 22.5578C52.3734 22.57 51.8263 22.4421 51.3359 22.1861V30.7129C52.6186 30.8167 53.9096 30.719 55.1621 30.4232C57.3271 30.0031 59.3144 28.938 60.863 27.3678C61.9163 26.3402 62.7534 25.1123 63.3249 23.7563C63.8964 22.4004 64.1909 20.9437 64.1909 19.4722C64.1909 18.0007 63.8964 16.5441 63.3249 15.1881C62.7534 13.8322 61.9163 12.6042 60.863 11.5767H60.8466Z" fill="#ED1C24" stroke="#231F20"/>
<path d="M36.2664 11.5929C34.1509 9.49766 31.2937 8.32227 28.3162 8.32227C25.3387 8.32227 22.4816 9.49766 20.366 11.5929C19.294 12.6134 18.4452 13.8451 17.8733 15.2102C17.3013 16.5752 17.0185 18.0441 17.0427 19.5239C17.0391 20.5603 17.1789 21.5923 17.4582 22.5903C17.9862 24.4174 18.9896 26.0716 20.366 27.384C21.6634 28.6883 23.2632 29.6516 25.023 30.188C25.3564 30.2864 25.7062 30.3629 26.0615 30.434L26.3184 30.4722C26.548 30.5105 26.7776 30.5433 27.0071 30.5651C27.9704 30.6994 28.9425 30.7597 29.915 30.7455V22.1859C29.465 22.436 28.9595 22.5694 28.4447 22.5739H28.1987C27.4169 22.5529 26.67 22.2456 26.0998 21.7103C25.793 21.436 25.5491 21.0986 25.3849 20.7212C25.2208 20.3439 25.1402 19.9354 25.1487 19.5239C25.1401 19.1095 25.2167 18.6978 25.3737 18.3142C25.5308 17.9306 25.7649 17.5833 26.0615 17.2938C26.3553 16.9968 26.7064 16.7627 27.0936 16.6058C27.4808 16.4488 27.8958 16.3724 28.3135 16.381C29.138 16.3669 29.9365 16.6702 30.5436 17.2283C30.8555 17.5208 31.1002 17.8775 31.2606 18.2739C31.4211 18.6703 31.4935 19.0968 31.4728 19.5239V30.7291H39.5733V19.5076C39.5935 18.0322 39.3104 16.5684 38.7415 15.2069C38.1727 13.8454 37.3303 12.6153 36.2664 11.5929Z" fill="#ED1C24" stroke="#231F20"/>
</svg>
