<svg width="75" height="48" viewBox="0 0 75 48" fill="none" xmlns="http://www.w3.org/2000/svg">
<rect width="75" height="48" rx="3" fill="url(#paint0_linear)"/>
<path d="M37.0748 38.3443C40.7073 35.0654 42.9996 30.3045 42.9996 25.0166C42.9996 19.7276 40.7066 14.9693 37.0748 11.6541C33.9007 8.76356 29.6719 7 25.0174 7C15.0761 7 7 15.0747 7 25.0159C7 34.9598 15.0761 42.9977 25.0174 42.9977C29.6721 42.9984 33.9007 41.2363 37.0748 38.3443Z" fill="#009DDD"/>
<path d="M37.0748 38.3446C40.7073 35.0656 42.9997 30.3047 42.9997 25.0169C42.9997 19.7278 40.7066 14.9696 37.0748 11.6543V38.3446Z" fill="#009DDD"/>
<path d="M49.1699 7.00073C44.5146 7.00073 40.2832 8.76429 37.0749 11.6548C36.4411 12.2537 35.8424 12.8887 35.2765 13.5601H38.9076C39.4021 14.1576 39.8606 14.8289 40.2832 15.4627H33.9007C33.5142 16.0977 33.1613 16.7334 32.8428 17.3667H41.3055C41.5891 18.0005 41.8693 18.6375 42.081 19.2713H32.1056C31.8932 19.9058 31.7164 20.542 31.5759 21.2102H42.6106C42.8566 22.4092 42.9998 23.7144 42.9998 25.0174C42.9998 26.9919 42.6806 28.9321 42.0811 30.7298H32.1057C32.3155 31.3636 32.5628 31.9994 32.8437 32.6339H41.3064C40.9898 33.2689 40.6713 33.9383 40.2834 34.5379H33.9008C34.3261 35.208 34.7833 35.8423 35.2765 36.4419H38.9076C38.3445 37.112 37.7442 37.7471 37.0749 38.346C40.2834 41.2379 44.5146 43 49.1699 43C59.1124 43 67.1517 34.9621 67.1517 25.0183C67.1508 15.0756 59.1124 7.00073 49.1699 7.00073Z" fill="#ED1C2E"/>
<path d="M60.9438 28.8951C60.9438 28.5772 61.2274 28.3313 61.544 28.3313C61.8619 28.3313 62.1078 28.5773 62.1078 28.8951C62.1078 29.2136 61.8618 29.4953 61.544 29.4953C61.2274 29.4953 60.9438 29.2136 60.9438 28.8951ZM61.544 29.3541C61.79 29.3541 61.9666 29.1424 61.9666 28.8951C61.9666 28.6486 61.7898 28.4718 61.544 28.4718C61.2967 28.4718 61.087 28.6486 61.087 28.8951C61.087 29.1424 61.2967 29.3541 61.544 29.3541ZM61.4733 29.1424H61.3328V28.6484H61.5438C61.6131 28.6484 61.6494 28.6484 61.6855 28.684C61.7204 28.7189 61.7548 28.7532 61.7548 28.7896C61.7548 28.8608 61.7199 28.9313 61.6492 28.9313L61.7548 29.1422H61.6131L61.5438 28.9654H61.4733V29.1424ZM61.4733 28.8608H61.5438C61.5438 28.8608 61.5787 28.8608 61.6131 28.8608C61.6131 28.8608 61.6131 28.8244 61.6131 28.7896V28.7532C61.5782 28.7532 61.5438 28.7532 61.5089 28.7532H61.4726V28.8608H61.4733V28.8608Z" fill="white"/>
<path d="M22.7606 29.4956H20.5052L21.8445 22.4793L18.7779 29.4956H16.7309L16.3793 22.5142L15.04 29.4956H12.9943L14.7227 20.3643H18.247L18.4231 26.0043L20.8943 20.3643H24.5221L22.7606 29.4956Z" fill="white"/>
<path d="M47.7941 29.3903C47.1591 29.5651 46.7007 29.6356 46.171 29.6356C45.0439 29.6356 44.4075 29.0718 44.4075 28.0152C44.4075 27.8028 44.4438 27.5904 44.478 27.3438L44.6184 26.6032L44.7267 26.0401L45.7482 20.3645H47.9688L47.6529 22.0554H48.815L48.4984 23.8551H47.3352L46.7713 26.9568C46.735 27.098 46.7008 27.2041 46.7008 27.274C46.7008 27.6625 46.9481 27.8372 47.4777 27.8372C47.7238 27.8372 47.9335 27.8023 48.0766 27.7672L47.7941 29.3903Z" fill="white"/>
<path d="M54.3167 22.1272C54.1399 22.0553 54.1057 22.0553 54.0707 22.0553C53.9638 22.019 53.8939 22.019 53.8939 21.9854C53.822 21.9854 53.7522 21.9854 53.6478 21.9854C52.9058 21.9854 52.3776 22.3026 51.707 23.183L51.9179 22.0553H49.8722L48.4978 29.495H50.7545C51.5651 24.9451 51.8829 24.1353 52.9751 24.1353C53.0456 24.1353 53.1531 24.1709 53.2574 24.1709L53.5047 24.2408L54.3167 22.1272Z" fill="white"/>
<path d="M38.9075 24.4171C38.9075 25.3345 39.4372 26.0039 40.636 26.4635C41.5534 26.85 41.6946 26.9568 41.6946 27.3097C41.6946 27.7674 41.2705 27.9798 40.3894 27.9798C39.7193 27.9798 39.0836 27.8737 38.3437 27.6633L38.0615 29.391H38.1683L38.5548 29.4959C38.6953 29.4959 38.9063 29.5315 39.1537 29.5315C39.6834 29.6008 40.1067 29.6008 40.424 29.6008C42.7863 29.6008 43.9146 28.8253 43.9146 27.1336C43.9146 26.1107 43.4562 25.5119 42.2929 25.0535C41.34 24.7007 41.2351 24.5951 41.2351 24.2424C41.2351 23.8559 41.6228 23.6435 42.3634 23.6435C42.7861 23.6435 43.4199 23.6798 43.9839 23.7484L44.3018 22.0567C43.7029 21.9526 42.8219 21.9163 42.3273 21.9163C39.7898 21.915 38.9075 23.0427 38.9075 24.4171Z" fill="white"/>
<path d="M30.0235 29.4952H28.1894L28.2258 28.7183C27.6619 29.3184 26.8863 29.6001 25.8635 29.6001C24.6659 29.6001 23.819 28.7895 23.819 27.5906C23.819 25.7915 25.2626 24.7343 27.768 24.7343C28.0127 24.7343 28.3312 24.7343 28.684 24.7706C28.7545 24.5241 28.7545 24.4171 28.7545 24.3122C28.7545 23.8189 28.3653 23.6421 27.3082 23.6421C26.6732 23.6421 25.9701 23.7126 25.4755 23.8189L25.159 23.925L24.9466 23.9594L25.2632 22.3028C26.3929 22.0192 27.0972 21.915 27.9446 21.915C29.8822 21.915 30.8702 22.6544 30.8702 24.0642C30.8702 24.4527 30.8353 24.7349 30.6948 25.5461L30.2364 28.1908L30.1659 28.6485L30.094 29.0377L30.0591 29.283L30.0235 29.4952ZM28.4018 26.1799C28.1531 26.145 28.049 26.145 27.9085 26.145C26.6383 26.145 26.0045 26.5328 26.0045 27.2741C26.0045 27.7318 26.2854 28.0496 26.7787 28.0496C27.6975 28.0496 28.3662 27.2741 28.4018 26.1799Z" fill="white"/>
<path d="M37.3914 29.3186C36.6172 29.5303 35.8766 29.6351 35.0997 29.6351C32.5996 29.6351 31.2925 28.4712 31.2925 26.2855C31.2925 23.7464 32.9505 21.8782 35.2072 21.8782C37.0398 21.8782 38.2059 22.936 38.2059 24.5577C38.2059 25.1208 38.134 25.6524 37.9586 26.3918H33.4787C33.4787 26.5322 33.4787 26.5671 33.4787 26.639C33.4787 27.4852 34.1137 27.9429 35.4183 27.9429C36.2294 27.9429 36.9695 27.8025 37.7443 27.4859L37.3914 29.3186ZM36.1938 24.9125C36.1938 24.7708 36.1938 24.6289 36.1938 24.524C36.1938 23.9251 35.8047 23.5711 35.136 23.5711C34.4303 23.5711 33.9369 24.0644 33.724 24.9125H36.1938V24.9125Z" fill="white"/>
<path d="M61.2967 26.11C60.9439 28.5765 59.2166 29.67 56.9236 29.67C54.4221 29.67 53.4005 28.1551 53.4005 26.2512C53.4005 23.6417 55.1264 21.8418 57.8059 21.8418C60.1333 21.8418 61.3672 23.323 61.3672 25.192C61.3679 25.653 61.3679 25.6874 61.2967 26.11ZM58.9705 25.1571C58.9705 24.3816 58.6526 23.6785 57.738 23.6785C56.607 23.6785 55.9027 25.0166 55.9027 26.2162C55.9027 27.204 56.3973 27.8734 57.173 27.8734C57.6663 27.8734 58.7242 27.204 58.9002 26.0757C58.9706 25.7923 58.9705 25.4763 58.9705 25.1571Z" fill="white"/>
<defs>
<linearGradient id="paint0_linear" x1="37.5" y1="0" x2="37.5" y2="48" gradientUnits="userSpaceOnUse">
<stop stop-color="#285888"/>
<stop offset="1" stop-color="#1C2566"/>
</linearGradient>
</defs>
</svg>
