<svg width="17" height="15" viewBox="0 0 17 15" fill="none" xmlns="http://www.w3.org/2000/svg">
<path d="M1.63166 4.9387C1.84671 5.09045 2.49495 5.54114 3.5764 6.29055C4.65788 7.03996 5.48637 7.61699 6.06191 8.02166C6.12514 8.06602 6.25948 8.16245 6.46499 8.31107C6.67053 8.4598 6.84132 8.57998 6.97722 8.67166C7.11322 8.7633 7.27763 8.8661 7.47061 8.97991C7.66353 9.09361 7.84539 9.17914 8.01614 9.23576C8.18693 9.29284 8.34503 9.32112 8.49046 9.32112H8.5H8.50957C8.65501 9.32112 8.81317 9.29281 8.98396 9.23576C9.15465 9.17914 9.33667 9.09351 9.52942 8.97991C9.72227 8.86597 9.88668 8.76327 10.0227 8.67166C10.1587 8.57998 10.3293 8.4598 10.5349 8.31107C10.7404 8.16231 10.8749 8.06602 10.9382 8.02166C11.5199 7.61699 13 6.58923 15.3778 4.9385C15.8395 4.61609 16.2252 4.22706 16.535 3.77168C16.8451 3.3165 17 2.83899 17 2.33942C17 1.92195 16.8497 1.56459 16.5493 1.26737C16.2489 0.970085 15.8931 0.821526 15.4821 0.821526H1.51779C1.03085 0.821526 0.656108 0.985935 0.393645 1.31475C0.131215 1.64364 0 2.05473 0 2.54799C0 2.94642 0.173979 3.37817 0.52177 3.84299C0.869528 4.30784 1.23961 4.67311 1.63166 4.9387Z" fill="#1869BB"/>
<path d="M16.0512 5.95366C13.977 7.35755 12.402 8.44861 11.327 9.22659C10.9666 9.49211 10.6741 9.69939 10.4495 9.84791C10.225 9.99654 9.92628 10.1483 9.55307 10.3032C9.17999 10.4583 8.8323 10.5356 8.5097 10.5356H8.50003H8.49049C8.16795 10.5356 7.82006 10.4583 7.44698 10.3032C7.07391 10.1483 6.77503 9.99654 6.55051 9.84791C6.32606 9.69939 6.03353 9.49211 5.67307 9.22659C4.81923 8.60052 3.24764 7.5094 0.958244 5.95366C0.597661 5.7135 0.278279 5.43821 0 5.12836V12.6605C0 13.0782 0.14856 13.4353 0.445845 13.7326C0.743064 14.0299 1.10046 14.1786 1.51789 14.1786H15.4822C15.8996 14.1786 16.2569 14.0299 16.5542 13.7326C16.8515 13.4352 17 13.0782 17 12.6605V5.12836C16.728 5.43179 16.4119 5.70708 16.0512 5.95366Z" fill="#1869BB"/>
</svg>
