<svg width="34" height="34" viewBox="0 0 34 34" fill="none" xmlns="http://www.w3.org/2000/svg">
<path d="M29.75 4.25H4.25C1.90294 4.25 0 6.15294 0 8.5V25.5C0 27.8471 1.90294 29.75 4.25 29.75H29.75C32.0971 29.75 34 27.8471 34 25.5V8.5C34 6.15294 32.0971 4.25 29.75 4.25ZM22.7545 15.5909L31.7505 7.88156C31.8128 8.08078 31.875 8.28 31.875 8.5V25.5C31.875 25.6474 31.819 25.7781 31.7899 25.9171L22.7545 15.5909ZM29.75 6.375C29.8911 6.375 30.0156 6.42899 30.1484 6.45595L17 17.7264L3.85156 6.45595C3.98438 6.42899 4.10889 6.375 4.25 6.375H29.75ZM2.20907 25.915C2.17998 25.776 2.125 25.6474 2.125 25.5V8.5C2.125 8.28 2.18829 8.08078 2.25057 7.88156L11.2434 15.5889L2.20907 25.915ZM4.25 27.625C4.03524 27.625 3.84014 27.5627 3.64404 27.5025L12.8579 16.973L16.309 19.9301C16.5071 20.1024 16.7541 20.1875 17 20.1875C17.2459 20.1875 17.4929 20.1024 17.691 19.9302L21.1421 16.973L30.356 27.5026C30.1609 27.5627 29.9658 27.625 29.75 27.625H4.25Z" fill="#1869BB"/>
</svg>
