<svg width="75" height="48" viewBox="0 0 75 48" fill="none" xmlns="http://www.w3.org/2000/svg">
<rect width="75" height="48" rx="3" fill="url(#paint0_linear)"/>
<path d="M68 24C68 33.9048 59.7778 42 49.5 42C39.3201 42 31 33.9048 31 24C31 14.0952 39.2222 6 49.4021 6C59.7778 6 68 14.0952 68 24Z" fill="#FFB600"/>
<path d="M49.5 6C59.6799 6 68 14.0952 68 24C68 33.9048 59.7778 42 49.5 42C39.3201 42 31 33.9048 31 24" fill="#F7981D"/>
<path d="M50 6C59.9048 6 68 14.0952 68 24C68 33.9048 60 42 50 42" fill="#FF8500"/>
<path d="M24.8568 6C15.0212 6.09524 7 14.0952 7 24C7 33.9048 15.0212 42 25.0477 42C29.7268 42 33.9284 40.1905 37.1751 37.3333C37.8435 36.7619 38.4164 36.0952 38.9894 35.4286H35.2653C34.7878 34.8571 34.3103 34.1905 33.9284 33.619H40.3263C40.7082 33.0476 41.0902 32.3809 41.3767 31.7143H32.878C32.5915 31.1429 32.305 30.4762 32.1141 29.8095H42.0451C42.618 28 43 26.0952 43 24.0952C43 22.7619 42.809 21.5238 42.618 20.2857H31.5411C31.6366 19.619 31.8276 19.0476 32.0186 18.381H41.9496C41.7586 17.7143 41.4721 17.0476 41.1857 16.4762H32.7825C33.069 15.8095 33.4509 15.2381 33.8329 14.5714H40.2308C39.8488 13.9048 39.3714 13.2381 38.7984 12.6667H35.2653C35.8382 12 36.4111 11.4286 37.0796 10.8571C33.9284 7.90476 29.6313 6.19048 24.9523 6.19048C24.9523 6 24.9523 6 24.8568 6Z" fill="#FF5050"/>
<path d="M7 23.9043C7 33.8617 15.0212 42 25.0477 42C29.7268 42 33.9284 40.1808 37.1751 37.3085C37.8435 36.734 38.4164 36.0638 38.9894 35.3936H35.2653C34.7878 34.8191 34.3103 34.1489 33.9284 33.5745H40.3263C40.7082 33 41.0902 32.3298 41.3767 31.6596H32.878C32.5915 31.0851 32.305 30.4149 32.1141 29.7447H42.0451C42.618 27.9255 43 26.0106 43 24C43 22.6596 42.809 21.4149 42.618 20.1702H31.5411C31.6366 19.5 31.8276 18.9255 32.0186 18.2553H41.9496C41.7586 17.5851 41.4721 16.9149 41.1857 16.3404H32.7825C33.069 15.6702 33.4509 15.0957 33.8329 14.4255H40.2308C39.8488 13.7553 39.3714 13.0851 38.7984 12.5106H35.2653C35.8382 11.8404 36.4111 11.266 37.0796 10.6915C33.9284 7.7234 29.6313 6 24.9523 6H24.8568" fill="#E52836"/>
<path d="M25.1895 42C29.8316 42 34 40.1808 37.2211 37.3085C37.8842 36.734 38.4526 36.0638 39.0211 35.3936H35.3263C34.8526 34.8191 34.3789 34.1489 34 33.5745H40.3474C40.7263 33 41.1053 32.3298 41.3895 31.6596H32.9579C32.6737 31.0851 32.3895 30.4149 32.2 29.7447H42.0526C42.6211 27.9255 43 26.0106 43 24C43 22.6596 42.8105 21.4149 42.6211 20.1702H31.6316C31.7263 19.5 31.9158 18.9255 32.1053 18.2553H41.9579C41.7684 17.5851 41.4842 16.9149 41.2 16.3404H32.8632C33.1474 15.6702 33.5263 15.0957 33.9053 14.4255H40.2526C39.8737 13.7553 39.4 13.0851 38.8316 12.5106H35.3263C35.8947 11.8404 36.4632 11.266 37.1263 10.6915C34 7.7234 29.7368 6 25.0947 6H25" fill="#CB2026"/>
<path d="M31.7873 28.4149L32.0778 26.7689C31.981 26.7689 31.7873 26.8657 31.5937 26.8657C30.9159 26.8657 30.8191 26.4784 30.9159 26.2848L31.4968 22.8959H32.5619L32.8524 21.0562H31.8841L32.0778 19.8943H30.1413C30.1413 19.8943 28.9794 26.2848 28.9794 27.0594C28.9794 28.2213 29.6571 28.7054 30.5286 28.7054C31.1095 28.7054 31.5937 28.5117 31.7873 28.4149Z" fill="white"/>
<path d="M32.4651 25.3167C32.4651 28.0278 34.3048 28.7055 35.854 28.7055C37.3064 28.7055 37.8873 28.4151 37.8873 28.4151L38.2746 26.5754C38.2746 26.5754 37.2095 27.0595 36.2413 27.0595C34.1111 27.0595 34.4984 25.5103 34.4984 25.5103H38.4683C38.4683 25.5103 38.7587 24.2516 38.7587 23.7675C38.7587 22.5087 38.081 20.9595 35.9508 20.9595C33.9175 20.7659 32.4651 22.896 32.4651 25.3167ZM35.854 22.5087C36.9191 22.5087 36.7254 23.7675 36.7254 23.8643H34.5952C34.5952 23.7675 34.7889 22.5087 35.854 22.5087Z" fill="white"/>
<path d="M48.1508 28.415L48.5381 26.2849C48.5381 26.2849 47.5699 26.769 46.8921 26.769C45.5366 26.769 44.9556 25.7039 44.9556 24.542C44.9556 22.2182 46.1175 20.9595 47.4731 20.9595C48.4413 20.9595 49.2159 21.5404 49.2159 21.5404L49.5064 19.5071C49.5064 19.5071 48.3445 19.0229 47.2794 19.0229C45.0524 19.0229 42.8254 20.9595 42.8254 24.6388C42.8254 27.0595 43.9873 28.7055 46.3112 28.7055C47.0858 28.7055 48.1508 28.415 48.1508 28.415Z" fill="white"/>
<path d="M21.1366 20.7659C19.7811 20.7659 18.8128 21.1532 18.8128 21.1532L18.5224 22.7992C18.5224 22.7992 19.3938 22.4119 20.6525 22.4119C21.3303 22.4119 21.9112 22.5087 21.9112 23.0897C21.9112 23.477 21.8144 23.5738 21.8144 23.5738C21.8144 23.5738 21.2335 23.5738 20.943 23.5738C19.297 23.5738 17.4573 24.2516 17.4573 26.4786C17.4573 28.2214 18.6192 28.6087 19.297 28.6087C20.6525 28.6087 21.2335 27.7373 21.3303 27.7373L21.2335 28.5119H22.9763L23.7509 23.1865C23.7509 20.8627 21.8144 20.7659 21.1366 20.7659ZM21.5239 25.123C21.5239 25.4135 21.3303 26.9627 20.1684 26.9627C19.5874 26.9627 19.3938 26.4786 19.3938 26.1881C19.3938 25.704 19.6843 25.0262 21.1366 25.0262C21.4271 25.123 21.5239 25.123 21.5239 25.123Z" fill="white"/>
<path d="M25.5905 28.6086C26.0746 28.6086 28.4953 28.7055 28.4953 26.0912C28.4953 23.6705 26.1715 24.1547 26.1715 23.1864C26.1715 22.7023 26.5588 22.5086 27.2365 22.5086C27.527 22.5086 28.5921 22.6055 28.5921 22.6055L28.8826 20.8626C28.8826 20.8626 28.2048 20.6689 27.0429 20.6689C25.5905 20.6689 24.1381 21.2499 24.1381 23.1864C24.1381 25.4134 26.5588 25.2197 26.5588 26.0912C26.5588 26.6721 25.881 26.7689 25.3969 26.7689C24.5254 26.7689 23.654 26.4785 23.654 26.4785L23.3635 28.2213C23.4604 28.415 23.9445 28.6086 25.5905 28.6086Z" fill="white"/>
<path d="M64.2239 19.2168L63.8366 21.8311C63.8366 21.8311 63.062 20.8628 61.9969 20.8628C60.254 20.8628 58.7048 22.993 58.7048 25.5104C58.7048 27.0597 59.4794 28.7057 61.1255 28.7057C62.2874 28.7057 62.9651 27.9311 62.9651 27.9311L62.8683 28.6089H64.8048L66.2572 19.3136L64.2239 19.2168ZM63.3525 24.3485C63.3525 25.4136 62.8683 26.7692 61.8032 26.7692C61.1255 26.7692 60.7382 26.1882 60.7382 25.22C60.7382 23.6708 61.4159 22.7025 62.2874 22.7025C62.9651 22.7025 63.3525 23.1866 63.3525 24.3485Z" fill="white"/>
<path d="M10.5826 28.512L11.7445 21.5406L11.9382 28.512H13.2937L15.8112 21.5406L14.7461 28.512H16.7794L18.3286 19.2168H15.1334L13.1969 24.9295L13.1001 19.2168H10.2921L8.74292 28.512H10.5826Z" fill="white"/>
<path d="M40.5984 28.5119C41.1794 25.3166 41.2762 22.7023 42.6318 23.1865C42.8254 21.9277 43.1159 21.4436 43.3095 20.9595C43.3095 20.9595 43.2127 20.9595 42.9222 20.9595C42.0508 20.9595 41.373 22.1214 41.373 22.1214L41.5667 21.0563H39.727L38.4683 28.6087H40.5984V28.5119Z" fill="white"/>
<path d="M52.6048 20.7659C51.2492 20.7659 50.281 21.1532 50.281 21.1532L49.9905 22.7992C49.9905 22.7992 50.8619 22.4119 52.1207 22.4119C52.7984 22.4119 53.3794 22.5087 53.3794 23.0897C53.3794 23.477 53.2826 23.5738 53.2826 23.5738C53.2826 23.5738 52.7016 23.5738 52.4111 23.5738C50.7651 23.5738 48.9254 24.2516 48.9254 26.4786C48.9254 28.2214 50.0873 28.6087 50.7651 28.6087C52.1207 28.6087 52.7016 27.7373 52.7984 27.7373L52.7016 28.5119H54.4445L55.2191 23.1865C55.3159 20.8627 53.2826 20.7659 52.6048 20.7659ZM53.0889 25.123C53.0889 25.4135 52.8953 26.9627 51.7334 26.9627C51.1524 26.9627 50.9588 26.4786 50.9588 26.1881C50.9588 25.704 51.2492 25.0262 52.7016 25.0262C52.9921 25.123 52.9921 25.123 53.0889 25.123Z" fill="white"/>
<path d="M56.8651 28.5119C57.4461 25.3166 57.5429 22.7023 58.8985 23.1865C59.0921 21.9277 59.3826 21.4436 59.5763 20.9595C59.5763 20.9595 59.4794 20.9595 59.189 20.9595C58.3175 20.9595 57.6397 22.1214 57.6397 22.1214L57.8334 21.0563H55.9937L54.735 28.6087H56.8651V28.5119Z" fill="white"/>
<path d="M28.7858 27.0594C28.7858 28.2213 29.4635 28.7054 30.335 28.7054C31.0128 28.7054 31.5937 28.5117 31.7874 28.4149L32.0778 26.7689C31.981 26.7689 31.7874 26.8657 31.5937 26.8657C30.9159 26.8657 30.8191 26.4784 30.9159 26.2848L31.4969 22.8959H32.562L32.8524 21.0562H31.8842L32.0778 19.8943" fill="#DCE5E5"/>
<path d="M33.4333 25.3167C33.4333 28.0278 34.3048 28.7055 35.854 28.7055C37.3064 28.7055 37.8873 28.4151 37.8873 28.4151L38.2746 26.5754C38.2746 26.5754 37.2095 27.0595 36.2413 27.0595C34.1111 27.0595 34.4984 25.5103 34.4984 25.5103H38.4683C38.4683 25.5103 38.7587 24.2516 38.7587 23.7675C38.7587 22.5087 38.081 20.9595 35.9508 20.9595C33.9175 20.7659 33.4333 22.896 33.4333 25.3167ZM35.854 22.5087C36.9191 22.5087 37.1127 23.7675 37.1127 23.8643H34.5953C34.5953 23.7675 34.7889 22.5087 35.854 22.5087Z" fill="#DCE5E5"/>
<path d="M48.1508 28.415L48.5381 26.2849C48.5381 26.2849 47.5699 26.769 46.8921 26.769C45.5366 26.769 44.9556 25.7039 44.9556 24.542C44.9556 22.2182 46.1175 20.9595 47.4731 20.9595C48.4413 20.9595 49.2159 21.5404 49.2159 21.5404L49.5064 19.5071C49.5064 19.5071 48.3445 19.0229 47.2794 19.0229C45.0524 19.0229 43.7937 20.9595 43.7937 24.6388C43.7937 27.0595 43.9874 28.7055 46.3112 28.7055C47.0858 28.7055 48.1508 28.415 48.1508 28.415Z" fill="#DCE5E5"/>
<path d="M18.5224 22.896C18.5224 22.896 19.3938 22.5087 20.6525 22.5087C21.3303 22.5087 21.9112 22.6055 21.9112 23.1865C21.9112 23.5738 21.8144 23.6706 21.8144 23.6706C21.8144 23.6706 21.2335 23.6706 20.943 23.6706C19.297 23.6706 17.4573 24.3484 17.4573 26.5753C17.4573 28.3182 18.6192 28.7055 19.297 28.7055C20.6525 28.7055 21.2335 27.8341 21.3303 27.8341L21.2335 28.6087H22.9763L23.7509 23.2833C23.7509 21.0563 21.8144 20.9595 21.0398 20.9595L18.5224 22.896ZM22.4922 25.123C22.4922 25.4134 21.3303 26.9626 20.1684 26.9626C19.5874 26.9626 19.3938 26.4785 19.3938 26.188C19.3938 25.7039 19.6843 25.0261 21.1366 25.0261C21.4271 25.123 22.4922 25.123 22.4922 25.123Z" fill="#DCE5E5"/>
<path d="M23.4603 28.415C23.4603 28.415 24.0413 28.6086 25.6873 28.6086C26.1714 28.6086 28.5921 28.7055 28.5921 26.0912C28.5921 23.6705 26.2683 24.1547 26.2683 23.1864C26.2683 22.7023 26.6556 22.5086 27.3333 22.5086C27.6238 22.5086 28.6889 22.6055 28.6889 22.6055L28.9794 20.8626C28.9794 20.8626 28.3016 20.6689 27.1397 20.6689C25.6873 20.6689 25.2032 21.2499 25.2032 23.1864C25.2032 25.4134 26.6556 25.2197 26.6556 26.0912C26.6556 26.6721 25.9778 26.7689 25.4937 26.7689" fill="#DCE5E5"/>
<path d="M63.8365 21.8309C63.8365 21.8309 63.0619 20.8627 61.9968 20.8627C60.254 20.8627 59.673 22.9928 59.673 25.5103C59.673 27.0595 59.4794 28.7055 61.1254 28.7055C62.2873 28.7055 62.9651 27.9309 62.9651 27.9309L62.8683 28.6087H64.8048L66.2572 19.3135L63.8365 21.8309ZM63.7397 24.3484C63.7397 25.4135 62.8683 26.769 61.8032 26.769C61.1254 26.769 60.7381 26.1881 60.7381 25.2198C60.7381 23.6706 61.4159 22.7024 62.2873 22.7024C62.9651 22.7024 63.7397 23.1865 63.7397 24.3484Z" fill="#DCE5E5"/>
<path d="M10.5826 28.512L11.7445 21.5406L11.9382 28.512H13.2937L15.8112 21.5406L14.7461 28.512H16.7794L18.3286 19.2168H15.908L13.1969 24.9295L13.1001 19.2168H12.035L8.74292 28.512H10.5826Z" fill="#DCE5E5"/>
<path d="M38.5651 28.5119H40.5984C41.1794 25.3166 41.2762 22.7023 42.6317 23.1865C42.8254 21.9277 43.1159 21.4436 43.3095 20.9595C43.3095 20.9595 43.2127 20.9595 42.9222 20.9595C42.0508 20.9595 41.373 22.1214 41.373 22.1214L41.5667 21.0563" fill="#DCE5E5"/>
<path d="M49.9905 22.896C49.9905 22.896 50.8619 22.5087 52.1207 22.5087C52.7984 22.5087 53.3794 22.6055 53.3794 23.1865C53.3794 23.5738 53.2826 23.6706 53.2826 23.6706C53.2826 23.6706 52.7016 23.6706 52.4111 23.6706C50.7651 23.6706 48.9254 24.3484 48.9254 26.5753C48.9254 28.3182 50.0873 28.7055 50.7651 28.7055C52.1207 28.7055 52.7016 27.8341 52.7984 27.8341L52.7016 28.6087H54.4445L55.2191 23.2833C55.2191 21.0563 53.2826 20.9595 52.508 20.9595L49.9905 22.896ZM53.9603 25.123C53.9603 25.4134 52.7984 26.9626 51.6365 26.9626C51.0556 26.9626 50.8619 26.4785 50.8619 26.188C50.8619 25.7039 51.1524 25.0261 52.6048 25.0261C52.9921 25.123 53.9603 25.123 53.9603 25.123Z" fill="#DCE5E5"/>
<path d="M54.8318 28.5119H56.8651C57.4461 25.3166 57.5429 22.7023 58.8985 23.1865C59.0921 21.9277 59.3826 21.4436 59.5762 20.9595C59.5762 20.9595 59.4794 20.9595 59.1889 20.9595C58.3175 20.9595 57.6397 22.1214 57.6397 22.1214L57.8334 21.0563" fill="#DCE5E5"/>
<defs>
<linearGradient id="paint0_linear" x1="37.5" y1="0" x2="37.5" y2="48" gradientUnits="userSpaceOnUse">
<stop stop-color="#285888"/>
<stop offset="1" stop-color="#1C2566"/>
</linearGradient>
</defs>
</svg>
