<svg width="21" height="15" viewBox="0 0 21 15" fill="none" xmlns="http://www.w3.org/2000/svg">
<g clip-path="url(#clip0)">
<path d="M5.47353 6.53338H15.2596V7.57323H5.47353V6.53338ZM11.0152 8.52565H5.47353V9.5649H11.0152V8.52565ZM5.47353 11.5554H15.2596V10.5167H5.47353V11.5554ZM11.9815 9.5649H15.2596V8.52565H11.9815V9.5649ZM20.6963 9.08331C20.6963 11.9599 18.4443 14.3042 15.5682 14.4194C15.5296 14.4248 15.4513 14.4296 15.3711 14.4296H3.73019C1.64929 14.429 0 12.7803 0 10.7531C0 9.16106 1.01634 7.77698 2.48298 7.27725C2.47755 7.16513 2.47454 7.05481 2.47454 6.9451C2.47454 3.26072 5.47172 0.262939 9.15608 0.262939C11.6023 0.262939 13.8598 1.61806 15.0245 3.749C15.136 3.74116 15.2439 3.73755 15.3506 3.73755C18.2978 3.73755 20.6958 6.13553 20.6963 9.08331ZM15.482 13.2173C17.7468 13.1251 19.4907 11.3106 19.4907 9.08331C19.4901 6.80043 17.6328 4.94316 15.3506 4.94316C15.1685 4.94316 14.9768 4.95824 14.7628 4.99019L14.3173 5.0565L14.1281 4.64719C13.2323 2.71638 11.281 1.46856 9.15608 1.46856C6.13662 1.46856 3.68016 3.92562 3.68016 6.9457C3.68016 7.17538 3.69583 7.41409 3.72718 7.65461L3.80073 8.22366L3.23589 8.32494C2.05981 8.53656 1.20563 9.55765 1.20563 10.7531C1.20563 12.1154 2.31359 13.2234 3.67594 13.2234H15.3711C15.4091 13.2234 15.4458 13.221 15.482 13.2173Z" fill="#63BB40"/>
</g>
<defs>
<clipPath id="clip0">
<rect width="20.8333" height="15" fill="white"/>
</clipPath>
</defs>
</svg>
