<svg width="63" height="63" viewBox="0 0 63 63" fill="none" xmlns="http://www.w3.org/2000/svg">
<path d="M8.48537 29.6985C9.65694 28.5269 11.5564 28.5269 12.728 29.6985L34.6483 51.6188L26.163 60.1041C24.9915 61.2756 23.092 61.2756 21.9204 60.1041L2.12141 40.3051C0.949836 39.1335 0.949835 37.234 2.12141 36.0624L8.48537 29.6985Z" fill="#63BC3E"/>
<path d="M15.5564 53.74C14.3848 52.5684 14.3848 50.6689 15.5564 49.4973L49.4975 15.5562C50.6691 14.3846 52.5686 14.3846 53.7401 15.5562L60.1041 21.9202C61.2757 23.0917 61.2757 24.9912 60.1041 26.1628L26.163 60.1039C24.9914 61.2755 23.0919 61.2755 21.9203 60.1039L15.5564 53.74Z" fill="#63BC3E"/>
</svg>
