<svg width="12" height="12" viewBox="0 0 12 12" fill="none" xmlns="http://www.w3.org/2000/svg">
<g clip-path="url(#clip0)">
<path d="M2.70216 11.9745C2.80443 11.9406 2.95509 11.7246 3.15377 11.3268C3.2164 11.2191 3.30151 11.0655 3.40948 10.8668C3.51745 10.668 3.61694 10.4874 3.70786 10.3256C3.79876 10.1634 3.88682 10.0116 3.97193 9.86958C3.98897 9.84693 4.03861 9.77591 4.12118 9.65658C4.20351 9.53718 4.26462 9.43646 4.30447 9.35388C4.34408 9.27153 4.36402 9.19053 4.36402 9.11096C4.36402 8.99741 4.283 8.85543 4.12118 8.68511C3.95915 8.51471 3.78315 8.35841 3.59264 8.21643C3.40222 8.07438 3.22622 7.92378 3.06428 7.76486C2.90228 7.60571 2.82136 7.47495 2.82136 7.3728C2.82136 7.32152 2.83565 7.25757 2.86386 7.18095C2.89225 7.10435 2.91658 7.04608 2.93619 7.00608C2.95622 6.96644 2.99587 6.89841 3.05572 6.80175C3.11539 6.70491 3.14807 6.65106 3.15377 6.63972C3.58569 5.86136 4.08002 5.19381 4.63665 4.63694C5.19361 4.08024 5.8611 3.58586 6.63955 3.15406C6.65092 3.14839 6.70492 3.11565 6.80146 3.05603C6.89809 2.99633 6.96618 2.95654 7.00606 2.93666C7.04579 2.91678 7.10407 2.89263 7.18075 2.86427C7.25744 2.83591 7.32132 2.82167 7.37251 2.82167C7.47472 2.82167 7.60549 2.90266 7.76457 3.0646C7.92357 3.22651 8.07424 3.40269 8.21614 3.59296C8.35812 3.78338 8.51442 3.95938 8.68482 4.12135C8.85529 4.28326 8.99727 4.36422 9.11082 4.36422C9.19032 4.36422 9.27139 4.34433 9.35374 4.30461C9.43632 4.26484 9.53697 4.20377 9.65637 4.12135C9.77569 4.0389 9.84664 3.9892 9.86944 3.97212C10.0114 3.88699 10.1634 3.79902 10.3254 3.708C10.4872 3.61699 10.6677 3.51765 10.8666 3.40965C11.0653 3.30174 11.2188 3.21657 11.3267 3.154C11.7243 2.95525 11.9403 2.80472 11.9743 2.70242C11.9913 2.66262 12 2.60292 12 2.52346C12 2.36997 11.9716 2.16973 11.9147 1.92259C11.8579 1.67537 11.7983 1.48083 11.7357 1.33877C11.6165 1.05468 11.2699 0.753573 10.6962 0.435362C10.1622 0.145598 9.63364 0.000732444 9.11097 0.000732422C8.95774 0.000732415 8.80857 0.0106727 8.66359 0.0305534C8.51869 0.0504341 8.35534 0.085957 8.17347 0.137151C7.99167 0.188255 7.85667 0.22948 7.76869 0.260644C7.68072 0.291838 7.52307 0.350078 7.29571 0.435332C7.06842 0.520466 6.92929 0.571661 6.87815 0.588705C6.32131 0.787541 5.82421 1.02333 5.38668 1.29603C4.65946 1.74468 3.9079 2.35695 3.13231 3.13248C2.35678 3.90804 1.74454 4.65944 1.29571 5.38673C1.02305 5.8242 0.78729 6.32148 0.5883 6.87823C0.571344 6.9294 0.52027 7.06853 0.434837 7.29573C0.349642 7.52298 0.291402 7.68071 0.260148 7.76868C0.228865 7.85673 0.187611 7.99181 0.136417 8.17346C0.0852229 8.35548 0.0497005 8.51868 0.0296706 8.66358C0.0100585 8.80856 -6.10285e-05 8.95773 -6.10352e-05 9.11103C-6.1058e-05 9.63363 0.144894 10.1622 0.434627 10.6962C0.752715 11.27 1.05388 11.6164 1.33819 11.7357C1.48009 11.7985 1.67469 11.8579 1.92192 11.9148C2.16902 11.9717 2.36923 12 2.5227 12C2.60249 12.0002 2.66204 11.9916 2.70216 11.9745Z" fill="#59BC47"/>
</g>
<defs>
<clipPath id="clip0">
<rect width="12" height="12" fill="white"/>
</clipPath>
</defs>
</svg>
