<svg width="16" height="16" viewBox="0 0 16 16" fill="none" xmlns="http://www.w3.org/2000/svg">
<path d="M3.60292 15.9657C3.73928 15.9205 3.94016 15.6326 4.20507 15.1022C4.28858 14.9585 4.40205 14.7538 4.54601 14.4888C4.68997 14.2237 4.82263 13.983 4.94386 13.7672C5.06506 13.551 5.18247 13.3485 5.29595 13.1592C5.31867 13.129 5.38486 13.0343 5.49495 12.8752C5.60472 12.716 5.6862 12.5817 5.73933 12.4716C5.79215 12.3618 5.81873 12.2538 5.81873 12.1477C5.81873 11.9963 5.71071 11.807 5.49495 11.5799C5.27891 11.3527 5.04424 11.1443 4.79023 10.955C4.53634 10.7656 4.30167 10.5648 4.08575 10.3529C3.86975 10.1407 3.76185 9.96635 3.76185 9.83015C3.76185 9.76178 3.78091 9.67652 3.81852 9.57435C3.85638 9.47222 3.88881 9.39453 3.91496 9.3412C3.94167 9.28834 3.99453 9.19763 4.07433 9.06876C4.15389 8.93964 4.19747 8.86784 4.20507 8.85272C4.78096 7.8149 5.44007 6.92483 6.18224 6.18234C6.92485 5.44008 7.81484 4.7809 8.85278 4.20517C8.86794 4.19761 8.93994 4.15395 9.06866 4.07446C9.1975 3.99486 9.28828 3.94181 9.34146 3.9153C9.39443 3.88879 9.47213 3.85659 9.57438 3.81878C9.67663 3.78097 9.7618 3.76198 9.83006 3.76198C9.96634 3.76198 10.1407 3.86997 10.3528 4.08589C10.5648 4.30177 10.7657 4.53667 10.9549 4.79037C11.1442 5.04426 11.3526 5.27893 11.5798 5.49489C11.8071 5.71077 11.9964 5.81871 12.1478 5.81871C12.2538 5.81871 12.3619 5.7922 12.4717 5.73923C12.5818 5.68621 12.716 5.60478 12.8752 5.49489C13.0343 5.38496 13.1289 5.31869 13.1593 5.29592C13.3486 5.18241 13.5512 5.06512 13.7672 4.94376C13.983 4.82241 14.2237 4.68995 14.4888 4.54595C14.7538 4.40207 14.9584 4.28851 15.1023 4.20509C15.6325 3.94009 15.9205 3.73938 15.9658 3.60298C15.9885 3.54992 16 3.47032 16 3.36437C16 3.15971 15.9622 2.89273 15.8863 2.56321C15.8106 2.23358 15.7311 1.97419 15.6477 1.78478C15.4887 1.40599 15.0266 1.00452 14.2616 0.580238C13.5496 0.193887 12.8449 0.000732284 12.148 0.000732254C11.9437 0.000732245 11.7448 0.013986 11.5515 0.0404936C11.3583 0.0670012 11.1405 0.114365 10.898 0.182624C10.6556 0.250763 10.4756 0.305729 10.3583 0.347281C10.241 0.388873 10.0308 0.466526 9.72765 0.580198C9.4246 0.693711 9.23909 0.76197 9.17091 0.784696C8.42846 1.04981 7.76565 1.3642 7.18228 1.72779C6.21265 2.326 5.21057 3.14236 4.17646 4.17639C3.14242 5.21047 2.3261 6.21234 1.72765 7.18206C1.36411 7.76535 1.04976 8.4284 0.78444 9.17073C0.761833 9.23895 0.693734 9.42446 0.579823 9.72739C0.46623 10.0304 0.388577 10.2407 0.346905 10.358C0.305194 10.4754 0.250189 10.6555 0.18193 10.8977C0.113671 11.1404 0.0663078 11.358 0.0396012 11.5512C0.0134518 11.7445 -4.09351e-05 11.9434 -4.0944e-05 12.1478C-4.09745e-05 12.8446 0.193233 13.5493 0.579543 14.2614C1.00366 15.0264 1.40522 15.4883 1.78429 15.6474C1.9735 15.7311 2.23296 15.8103 2.5626 15.8861C2.89207 15.962 3.15902 15.9998 3.36364 15.9998C3.47003 16 3.54943 15.9886 3.60292 15.9657Z" fill="#59BC47"/>
</svg>
