<svg width="16" height="16" viewBox="0 0 16 16" fill="none" xmlns="http://www.w3.org/2000/svg">
<path d="M3.6029 15.9657C3.73926 15.9205 3.94014 15.6326 4.20505 15.1022C4.28856 14.9585 4.40203 14.7538 4.54599 14.4888C4.68995 14.2237 4.82261 13.983 4.94384 13.7672C5.06504 13.551 5.18245 13.3485 5.29593 13.1592C5.31865 13.129 5.38484 13.0343 5.49493 12.8752C5.6047 12.716 5.68618 12.5817 5.73931 12.4716C5.79213 12.3618 5.81871 12.2538 5.81871 12.1477C5.81871 11.9963 5.71069 11.807 5.49493 11.5799C5.27889 11.3527 5.04422 11.1443 4.79021 10.955C4.53632 10.7656 4.30165 10.5648 4.08573 10.3529C3.86973 10.1407 3.76183 9.96635 3.76183 9.83015C3.76183 9.76178 3.78089 9.67652 3.8185 9.57435C3.85636 9.47222 3.88879 9.39453 3.91494 9.3412C3.94165 9.28834 3.99451 9.19763 4.07431 9.06876C4.15387 8.93964 4.19745 8.86784 4.20505 8.85272C4.78094 7.8149 5.44005 6.92483 6.18222 6.18234C6.92483 5.44008 7.81482 4.7809 8.85276 4.20517C8.86792 4.19761 8.93992 4.15395 9.06864 4.07446C9.19748 3.99486 9.28826 3.94181 9.34144 3.9153C9.39441 3.88879 9.47211 3.85659 9.57436 3.81878C9.67661 3.78097 9.76178 3.76198 9.83004 3.76198C9.96632 3.76198 10.1407 3.86997 10.3528 4.08589C10.5648 4.30177 10.7657 4.53667 10.9549 4.79037C11.1442 5.04426 11.3526 5.27893 11.5798 5.49489C11.8071 5.71077 11.9964 5.81871 12.1478 5.81871C12.2538 5.81871 12.3619 5.7922 12.4717 5.73923C12.5818 5.68621 12.716 5.60478 12.8752 5.49489C13.0343 5.38496 13.1289 5.31869 13.1593 5.29592C13.3486 5.18241 13.5512 5.06512 13.7672 4.94376C13.983 4.82241 14.2237 4.68995 14.4888 4.54595C14.7538 4.40207 14.9584 4.28851 15.1023 4.20509C15.6325 3.94009 15.9205 3.73938 15.9658 3.60298C15.9885 3.54992 16 3.47032 16 3.36437C16 3.15971 15.9622 2.89273 15.8863 2.56321C15.8106 2.23358 15.7311 1.97419 15.6477 1.78478C15.4887 1.40599 15.0266 1.00452 14.2616 0.580238C13.5496 0.193887 12.8449 0.000732452 12.148 0.000732422C11.9437 0.000732413 11.7448 0.0139862 11.5515 0.0404938C11.3583 0.0670014 11.1405 0.114365 10.898 0.182624C10.6556 0.250763 10.4756 0.305729 10.3583 0.347281C10.241 0.388873 10.0308 0.466526 9.72763 0.580198C9.42458 0.693711 9.23907 0.76197 9.17089 0.784696C8.42844 1.04981 7.76563 1.3642 7.18226 1.72779C6.21263 2.326 5.21055 3.14236 4.17644 4.17639C3.1424 5.21047 2.32608 6.21234 1.72763 7.18206C1.36409 7.76535 1.04974 8.4284 0.78442 9.17073C0.761813 9.23895 0.693714 9.42446 0.579803 9.72739C0.46621 10.0304 0.388557 10.2407 0.346885 10.358C0.305174 10.4754 0.250169 10.6555 0.18191 10.8977C0.113651 11.1404 0.0662877 11.358 0.0395811 11.5512C0.0134317 11.7445 -6.10263e-05 11.9434 -6.10352e-05 12.1478C-6.10657e-05 12.8446 0.193213 13.5493 0.579523 14.2614C1.00364 15.0264 1.4052 15.4883 1.78427 15.6474C1.97348 15.7311 2.23294 15.8103 2.56258 15.8861C2.89205 15.962 3.159 15.9998 3.36362 15.9998C3.47001 16 3.54941 15.9886 3.6029 15.9657Z" fill="#1869BB"/>
</svg>
