<svg width="11" height="16" viewBox="0 0 11 16" fill="none" xmlns="http://www.w3.org/2000/svg">
<path d="M5.33334 0C2.39259 0 0 2.39259 0 5.33334C0 6.21616 0.220719 7.09147 0.640312 7.86784L5.04169 15.8281C5.10028 15.9342 5.21194 16 5.33334 16C5.45475 16 5.56641 15.9342 5.625 15.8281L10.028 7.86522C10.446 7.09147 10.6667 6.21613 10.6667 5.33331C10.6667 2.39259 8.27409 0 5.33334 0ZM5.33334 8C3.86297 8 2.66669 6.80372 2.66669 5.33334C2.66669 3.86297 3.86297 2.66669 5.33334 2.66669C6.80372 2.66669 8 3.86297 8 5.33334C8 6.80372 6.80372 8 5.33334 8Z" fill="#59BC47"/>
</svg>
