<svg width="16" height="15" viewBox="0 0 16 15" fill="none" xmlns="http://www.w3.org/2000/svg">
<path d="M15.2533 13.6626L11.7382 9.94961C12.6421 8.85844 13.1372 7.48551 13.1372 6.05625C13.1372 2.71689 10.4621 0 7.17413 0C3.88615 0 1.21106 2.71689 1.21106 6.05625C1.21106 9.3956 3.88615 12.1125 7.17413 12.1125C8.40849 12.1125 9.58477 11.7344 10.5905 11.0166L14.1323 14.7578C14.2803 14.9139 14.4794 15 14.6928 15C14.8947 15 15.0864 14.9217 15.2318 14.7796C15.5409 14.4776 15.5507 13.9768 15.2533 13.6626ZM7.17413 1.57989C9.60448 1.57989 11.5816 3.58792 11.5816 6.05625C11.5816 8.52456 9.60448 10.5326 7.17413 10.5326C4.74379 10.5326 2.76664 8.52456 2.76664 6.05625C2.76664 3.58792 4.74379 1.57989 7.17413 1.57989Z" fill="#63BB40"/>
</svg>
