<svg width="13" height="12" viewBox="0 0 13 12" fill="none" xmlns="http://www.w3.org/2000/svg">
<path d="M12.3933 10.9301L9.53732 7.95969C10.2717 7.08675 10.674 5.98841 10.674 4.845C10.674 2.17351 8.50049 0 5.829 0C3.15752 0 0.984009 2.17351 0.984009 4.845C0.984009 7.51648 3.15752 9.68999 5.829 9.68999C6.83192 9.68999 7.78765 9.38749 8.60477 8.81326L11.4825 11.8062C11.6028 11.9311 11.7645 12 11.9379 12C12.102 12 12.2577 11.9374 12.3759 11.8237C12.627 11.5821 12.635 11.1814 12.3933 10.9301ZM5.829 1.26391C7.80366 1.26391 9.41009 2.87034 9.41009 4.845C9.41009 6.81965 7.80366 8.42608 5.829 8.42608C3.85435 8.42608 2.24792 6.81965 2.24792 4.845C2.24792 2.87034 3.85435 1.26391 5.829 1.26391Z" fill="#0D161F"/>
</svg>
