<svg width="74" height="7" viewBox="0 0 74 7" fill="none" xmlns="http://www.w3.org/2000/svg">
<path d="M6.07951 0.326555C6.269 0.118548 6.53736 0 6.81875 0H47.9674C48.7974 0 49.2661 0.952722 48.7596 1.61025L44.9081 6.61025C44.7188 6.85602 44.4261 7 44.1159 7H2.26375C1.39511 7 0.939529 5.96868 1.52451 5.32655L6.07951 0.326555Z" fill="#63BC3E"/>
<path d="M67.2967 6.68045C67.1075 6.88422 66.842 7 66.5639 7L50.1742 7C49.3199 7 48.859 5.99788 49.415 5.34921L53.7007 0.349211C53.8907 0.127565 54.168 2.58504e-06 54.4599 2.58201e-06L71.2068 2.40801e-06C72.08 2.39894e-06 72.5337 1.0406 71.9396 1.68045L67.2967 6.68045Z" fill="#63BC3E"/>
</svg>
