<svg width="25" height="22" viewBox="0 0 25 22" fill="none" xmlns="http://www.w3.org/2000/svg">
<path d="M0.920692 4.49217C0.306865 5.10605 0 5.84081 0 6.69632V18.3033C0 19.1591 0.306865 19.8939 0.920692 20.5076C1.53457 21.1215 2.26933 21.4282 3.12499 21.4282H4.01778V3.57129H3.12499C2.26914 3.57129 1.53442 3.8783 0.920692 4.49217Z" fill="white"/>
<path d="M17.857 1.33921C17.857 0.96716 17.7269 0.651011 17.4664 0.390568C17.2062 0.130124 16.8898 0 16.5179 0H8.48217C8.11021 0 7.79402 0.130124 7.53352 0.390568C7.27308 0.650865 7.14291 0.967111 7.14291 1.33921V3.57125H5.35718V21.4282H19.643V3.57125H17.857V1.33921ZM16.0714 3.57125H8.92858V1.78563H16.0714V3.57125Z" fill="white"/>
<path d="M24.0794 4.49217C23.4655 3.87835 22.7307 3.57129 21.8751 3.57129H20.9822V21.4282H21.8751C22.7308 21.4282 23.4655 21.1216 24.0794 20.5076C24.6931 19.8938 25.0001 19.1591 25.0001 18.3033V6.69632C25.0001 5.84081 24.6931 5.10605 24.0794 4.49217Z" fill="white"/>
</svg>
