<svg width="63" height="63" viewBox="0 0 63 63" fill="none" xmlns="http://www.w3.org/2000/svg">
<path d="M61.3077 37.9418C61.3077 36.4474 60.7986 35.0707 59.9464 33.9726C61.6224 32.7983 62.7211 30.8541 62.7211 28.6569C62.7211 25.0793 59.8105 22.1687 56.2329 22.1687H41.1314L43.2472 14.8602V11.4256C43.2472 5.12551 38.1217 0 31.8216 0C30.3349 0 29.1253 1.20955 29.1253 2.69621V10.3693C28.0185 12.1679 21.095 19.8829 14.036 27.4184V58.4646L21.3281 61.1992C24.5146 62.3942 27.8558 63 31.2587 63H40.5405H49.0752H51.9926C55.5702 63 58.4807 60.0894 58.4807 56.5119C58.4807 55.0182 57.9734 53.6406 57.122 52.5429C58.797 51.3685 59.8942 49.4234 59.8942 47.2269C59.8942 45.7325 59.3851 44.3557 58.5329 43.2576C60.209 42.0831 61.3077 40.139 61.3077 37.9418Z" fill="#63BC3E"/>
<path d="M10.3454 29.5068H0.2789V57.7324H10.3454V29.5068Z" fill="#63BC3E"/>
</svg>
