<svg width="18" height="18" viewBox="0 0 18 18" fill="none" xmlns="http://www.w3.org/2000/svg">
<g clip-path="url(#clip0)">
<path d="M18 3.41936C17.3375 3.71292 16.6266 3.91201 15.8797 4.00089C16.6424 3.54421 17.2261 2.81986 17.5028 1.95939C16.7874 2.3823 15.9978 2.68939 15.1565 2.85586C14.4827 2.13713 13.5244 1.68945 12.4615 1.68945C10.4222 1.68945 8.76879 3.34289 8.76879 5.381C8.76879 5.67006 8.80141 5.95238 8.86441 6.22235C5.796 6.06824 3.07515 4.59815 1.25412 2.3643C0.935794 2.90871 0.754706 3.54307 0.754706 4.22021C0.754706 5.50136 1.40709 6.63176 2.39691 7.29312C1.79176 7.27288 1.22262 7.10641 0.724353 6.82971V6.87582C0.724353 8.66423 1.99762 10.1568 3.68591 10.4965C3.37659 10.5798 3.05041 10.6259 2.71297 10.6259C2.47453 10.6259 2.24394 10.6023 2.01785 10.5573C2.488 12.0251 3.85126 13.0925 5.46647 13.1218C4.20332 14.1116 2.61062 14.6999 0.880706 14.6999C0.582647 14.6999 0.289059 14.6819 0 14.6492C1.63432 15.6987 3.57459 16.3106 5.65994 16.3106C12.4525 16.3106 16.1655 10.6844 16.1655 5.80506L16.1531 5.32703C16.8786 4.80959 17.5062 4.15948 18 3.41936Z" fill="#59BC47"/>
</g>
<defs>
<clipPath id="clip0">
<rect width="18" height="18" fill="white"/>
</clipPath>
</defs>
</svg>
