<svg width="23" height="23" viewBox="0 0 23 23" fill="none" xmlns="http://www.w3.org/2000/svg">
<path d="M23 4.36913C22.1535 4.74424 21.2451 4.99863 20.2907 5.1122C21.2653 4.52866 22.0111 3.6031 22.3647 2.50361C21.4506 3.044 20.4416 3.43639 19.3666 3.6491C18.5057 2.73073 17.2812 2.15869 15.923 2.15869C13.3173 2.15869 11.2046 4.27142 11.2046 6.87567C11.2046 7.24503 11.2462 7.60577 11.3267 7.95073C7.406 7.75381 3.92936 5.87536 1.60249 3.021C1.19574 3.71663 0.964347 4.52721 0.964347 5.39244C0.964347 7.02946 1.79795 8.47386 3.06272 9.31894C2.28947 9.29307 1.56224 9.08036 0.925562 8.7268V8.78572C0.925562 11.0709 2.55251 12.9781 4.70977 13.4121C4.31453 13.5186 3.89775 13.5775 3.46657 13.5775C3.1619 13.5775 2.86726 13.5473 2.57836 13.4898C3.17911 15.3654 4.92105 16.7293 6.98493 16.7667C5.37091 18.0314 3.33579 18.7832 1.12535 18.7832C0.744493 18.7832 0.369353 18.7602 0 18.7184C2.0883 20.0594 4.56753 20.8413 7.23215 20.8413C15.9115 20.8413 20.6559 13.6522 20.6559 7.41753L20.6401 6.80671C21.5671 6.14554 22.369 5.31484 23 4.36913Z" fill="white"/>
</svg>
