<svg width="75" height="48" viewBox="0 0 75 48" fill="none" xmlns="http://www.w3.org/2000/svg">
<rect width="75" height="48" rx="3" fill="white"/>
<path d="M27.5333 32.5332L30.3778 16.5332H34.8222L32.0667 32.5332H27.5333Z" fill="#3C58BF"/>
<path d="M27.5333 32.5332L31.1778 16.5332H34.8222L32.0667 32.5332H27.5333Z" fill="#293688"/>
<path d="M48.1555 16.7111C47.2667 16.3556 45.8444 16 44.0667 16C39.6222 16 36.4222 18.2222 36.4222 21.4222C36.4222 23.8222 38.6444 25.0667 40.4222 25.8667C42.2 26.6667 42.7333 27.2 42.7333 27.9111C42.7333 28.9778 41.3111 29.5111 40.0667 29.5111C38.2889 29.5111 37.3111 29.2444 35.8 28.6222L35.1778 28.3556L34.5555 32C35.6222 32.4444 37.5778 32.8889 39.6222 32.8889C44.3333 32.8889 47.4444 30.6667 47.4444 27.2889C47.4444 25.4222 46.2889 24 43.6222 22.8444C42.0222 22.0444 41.0444 21.6 41.0444 20.8C41.0444 20.0889 41.8444 19.3778 43.6222 19.3778C45.1333 19.3778 46.2 19.6444 47 20L47.4444 20.1778L48.1555 16.7111Z" fill="#3C58BF"/>
<path d="M48.1555 16.7111C47.2667 16.3556 45.8444 16 44.0667 16C39.6222 16 37.2222 18.2222 37.2222 21.4222C37.2222 23.8222 38.6444 25.0667 40.4222 25.8667C42.2 26.6667 42.7333 27.2 42.7333 27.9111C42.7333 28.9778 41.3111 29.5111 40.0667 29.5111C38.2889 29.5111 37.3111 29.2444 35.8 28.6222L35.1778 28.3556L34.5555 32C35.6222 32.4444 37.5778 32.8889 39.6222 32.8889C44.3333 32.8889 47.4444 30.6667 47.4444 27.2889C47.4444 25.4222 46.2889 24 43.6222 22.8444C42.0222 22.0444 41.0444 21.6 41.0444 20.8C41.0444 20.0889 41.8444 19.3778 43.6222 19.3778C45.1333 19.3778 46.2 19.6444 47 20L47.4444 20.1778L48.1555 16.7111Z" fill="#293688"/>
<path d="M55.8 16.5332C54.7334 16.5332 53.9334 16.6221 53.4889 17.6888L46.8223 32.5332H51.6223L52.5112 29.8665H58.2L58.7334 32.5332H63L59.2667 16.5332H55.8V16.5332ZM53.7556 27.1999C54.0223 26.3999 55.5334 22.4888 55.5334 22.4888C55.5334 22.4888 55.8889 21.511 56.1556 20.8888L56.4223 22.3999C56.4223 22.3999 57.3112 26.3999 57.4889 27.2888H53.7556V27.1999Z" fill="#3C58BF"/>
<path d="M56.8667 16.5332C55.8 16.5332 55 16.6221 54.5556 17.6888L46.8223 32.5332H51.6223L52.5112 29.8665H58.2L58.7334 32.5332H63L59.2667 16.5332H56.8667V16.5332ZM53.7556 27.1999C54.1112 26.311 55.5334 22.4888 55.5334 22.4888C55.5334 22.4888 55.8889 21.511 56.1556 20.8888L56.4223 22.3999C56.4223 22.3999 57.3112 26.3999 57.4889 27.2888H53.7556V27.1999Z" fill="#293688"/>
<path d="M19.3555 27.7334L18.9111 25.4223C18.1111 22.7556 15.5333 19.8223 12.6888 18.4001L16.6888 32.6223H21.4888L28.6888 16.6223H23.8888L19.3555 27.7334Z" fill="#3C58BF"/>
<path d="M19.3555 27.7334L18.9111 25.4223C18.1111 22.7556 15.5333 19.8223 12.6888 18.4001L16.6888 32.6223H21.4888L28.6888 16.6223H24.7777L19.3555 27.7334Z" fill="#293688"/>
<path d="M7 16.5332L7.8 16.711C13.4889 18.0443 17.4 21.4221 18.9111 25.4221L17.3111 17.8665C17.0444 16.7999 16.2444 16.5332 15.2667 16.5332H7V16.5332Z" fill="#FFBC00"/>
<path d="M7 16.5332C12.6889 17.8665 17.4 21.3332 18.9111 25.3332L17.4 19.0221C17.1333 17.9554 16.2444 17.3332 15.2667 17.3332L7 16.5332Z" fill="#F7981D"/>
<path d="M7 16.5332C12.6889 17.8665 17.4 21.3332 18.9111 25.3332L17.8444 21.8665C17.5778 20.7999 17.2222 19.7332 15.9778 19.2888L7 16.5332Z" fill="#ED7C00"/>
<path d="M23.8001 27.1999L20.7778 24.1777L19.3556 27.5555L19.0001 25.3333C18.2001 22.6666 15.6223 19.7333 12.7778 18.311L16.7778 32.5333H21.5778L23.8001 27.1999Z" fill="#051244"/>
<path d="M32.0665 32.5332L28.2443 28.6221L27.5332 32.5332H32.0665Z" fill="#051244"/>
<path d="M42.2889 27.0222C42.6444 27.3778 42.8222 27.6444 42.7333 28C42.7333 29.0667 41.3111 29.6 40.0667 29.6C38.2889 29.6 37.3111 29.3333 35.8 28.7111L35.1778 28.4444L34.5555 32.0889C35.6222 32.5333 37.5778 32.9778 39.6222 32.9778C42.4667 32.9778 44.7778 32.1778 46.1111 30.7556L42.2889 27.0222Z" fill="#051244"/>
<path d="M47.4445 32.5334H51.6222L52.5111 29.8667H58.2L58.7333 32.5334H63L61.4889 26.0445L56.1556 20.8889L56.4222 22.3111C56.4222 22.3111 57.3111 26.3111 57.4889 27.2H53.7556C54.1111 26.3111 55.5333 22.4889 55.5333 22.4889C55.5333 22.4889 55.8889 21.5111 56.1556 20.8889" fill="#051244"/>
</svg>
