<svg width="18" height="18" viewBox="0 0 18 18" fill="none" xmlns="http://www.w3.org/2000/svg">
<g clip-path="url(#clip0)">
<path fill-rule="evenodd" clip-rule="evenodd" d="M15.4916 10.3834C16.0886 10.9664 16.7188 11.5149 17.2544 12.1566C17.4909 12.4418 17.7149 12.7361 17.8862 13.067C18.129 13.5375 17.9091 14.0552 17.4873 14.0833L14.865 14.0821C14.1886 14.1382 13.6491 13.8659 13.1954 13.4035C12.8324 13.0337 12.4962 12.6401 12.1471 12.2578C12.0039 12.1016 11.8541 11.9546 11.6752 11.8384C11.3172 11.606 11.0065 11.6771 10.8019 12.0505C10.5935 12.4302 10.5463 12.8507 10.5258 13.2739C10.4977 13.8914 10.3111 14.0538 9.69083 14.082C8.36525 14.1445 7.10722 13.944 5.93854 13.2753C4.9082 12.6858 4.10921 11.8536 3.41377 10.9114C2.05975 9.07679 1.02284 7.06087 0.0909061 4.98847C-0.118865 4.52156 0.0345452 4.27092 0.549718 4.26205C1.40519 4.24543 2.26053 4.24661 3.11701 4.26086C3.46469 4.26595 3.69487 4.46537 3.82912 4.79384C4.29195 5.93188 4.85828 7.01462 5.56915 8.01824C5.75846 8.28543 5.95149 8.55263 6.22638 8.7407C6.53048 8.94893 6.76201 8.87991 6.90507 8.54116C6.99586 8.32636 7.0356 8.095 7.05606 7.86494C7.12384 7.07347 7.13277 6.28335 7.01389 5.49465C6.94091 5.00243 6.66366 4.68378 6.1725 4.59063C5.92186 4.54314 5.95918 4.44988 6.08054 4.30682C6.29131 4.06008 6.48955 3.90649 6.88473 3.90649H9.84832C10.3149 3.99858 10.4185 4.20817 10.4824 4.67763L10.4849 7.96956C10.4798 8.1513 10.5757 8.69061 10.903 8.8109C11.165 8.89653 11.3377 8.68694 11.4949 8.52081C12.2045 7.76772 12.7109 6.87771 13.1633 5.95613C13.3641 5.5509 13.5367 5.13005 13.704 4.70956C13.828 4.39754 14.0225 4.24401 14.374 4.25081L17.2263 4.25335C17.3108 4.25335 17.3964 4.2546 17.4783 4.26861C17.959 4.35052 18.0907 4.55728 17.9422 5.02662C17.7083 5.76297 17.2532 6.37662 16.8083 6.9931C16.3326 7.65127 15.8239 8.28691 15.3522 8.94899C14.9188 9.55358 14.9532 9.85833 15.4916 10.3834Z" fill="#59BC47"/>
</g>
<defs>
<clipPath id="clip0">
<rect width="18" height="18" fill="white"/>
</clipPath>
</defs>
</svg>
