<svg width="26" height="26" viewBox="0 0 26 26" fill="none" xmlns="http://www.w3.org/2000/svg">
<g clip-path="url(#clip0)">
<path fill-rule="evenodd" clip-rule="evenodd" d="M22.3768 14.9979C23.2391 15.84 24.1494 16.6323 24.923 17.5592C25.2646 17.9712 25.5882 18.3963 25.8356 18.8742C26.1863 19.5539 25.8687 20.3016 25.2594 20.3422L21.4717 20.3405C20.4946 20.4215 19.7154 20.0282 19.06 19.3603C18.5357 18.8261 18.0501 18.2576 17.5458 17.7054C17.339 17.4798 17.1226 17.2674 16.8642 17.0996C16.3471 16.7639 15.8983 16.8666 15.6027 17.406C15.3017 17.9544 15.2335 18.5618 15.2039 19.1731C15.1633 20.065 14.8938 20.2996 13.9979 20.3404C12.0831 20.4306 10.266 20.141 8.57789 19.1751C7.08962 18.3236 5.93553 17.1215 4.931 15.7606C2.97519 13.1105 1.47744 10.1987 0.131309 7.20519C-0.171694 6.53077 0.0498984 6.16873 0.794037 6.15592C2.02972 6.13191 3.26521 6.13362 4.50235 6.1542C5.00455 6.16155 5.33703 6.44961 5.53095 6.92406C6.19948 8.5679 7.01752 10.1319 8.04433 11.5815C8.31778 11.9675 8.5966 12.3534 8.99366 12.6251C9.43292 12.9259 9.76735 12.8262 9.97399 12.3369C10.1051 12.0266 10.1625 11.6924 10.1921 11.3601C10.29 10.2169 10.3029 9.07558 10.1312 7.93634C10.0258 7.22536 9.62529 6.76509 8.91583 6.63054C8.5538 6.56194 8.6077 6.42723 8.783 6.22059C9.08745 5.86419 9.37379 5.64233 9.94461 5.64233H14.2254C14.8993 5.77535 15.0489 6.07809 15.1412 6.7562L15.1449 11.5112C15.1375 11.7737 15.276 12.5527 15.7488 12.7265C16.1272 12.8502 16.3767 12.5474 16.6037 12.3075C17.6287 11.2197 18.3602 9.9341 19.0137 8.60293C19.3037 8.01759 19.553 7.4097 19.7947 6.80232C19.9738 6.35163 20.2547 6.12986 20.7624 6.13968L24.8824 6.14335C25.0045 6.14335 25.1281 6.14516 25.2464 6.1654C25.9408 6.28371 26.131 6.58236 25.9165 7.2603C25.5787 8.32392 24.9213 9.2103 24.2787 10.1008C23.5915 11.0515 22.8567 11.9696 22.1754 12.9259C21.5494 13.7992 21.5991 14.2394 22.3768 14.9979Z" fill="white"/>
</g>
<defs>
<clipPath id="clip0">
<rect width="26" height="26" fill="white"/>
</clipPath>
</defs>
</svg>
