<svg width="16" height="18" viewBox="0 0 16 18" fill="none" xmlns="http://www.w3.org/2000/svg">
<path d="M13.1878 13.1664H12.2L12.2046 12.5926C12.2046 12.3376 12.414 12.129 12.6698 12.129H12.7328C12.9892 12.129 13.1992 12.3376 13.1992 12.5926L13.1878 13.1664ZM9.4826 11.9368C9.232 11.9368 9.027 12.1052 9.027 12.3114V15.102C9.027 15.3078 9.232 15.4758 9.4826 15.4758C9.7342 15.4758 9.9394 15.3078 9.9394 15.102V12.3114C9.9394 12.105 9.7342 11.9368 9.4826 11.9368ZM15.5 10.3758V15.6846C15.5 16.958 14.3958 18 13.046 18H2.9542C1.604 18 0.5 16.958 0.5 15.6846V10.3758C0.5 9.1024 1.604 8.0602 2.9542 8.0602H13.046C14.3958 8.0602 15.5 9.1024 15.5 10.3758ZM3.6274 16.261L3.6266 10.6688L4.8776 10.6692V9.8406L1.5428 9.8356V10.6502L2.5838 10.6532V16.261H3.6274ZM7.3774 11.5018H6.3344V14.488C6.3344 14.92 6.3606 15.136 6.3328 15.2122C6.248 15.4438 5.8668 15.6898 5.7182 15.2372C5.693 15.158 5.7152 14.919 5.7148 14.5086L5.7106 11.5018H4.6734L4.6766 14.4614C4.6774 14.915 4.6664 15.2532 4.6802 15.4072C4.7056 15.6786 4.6966 15.995 4.9484 16.1758C5.4176 16.5138 6.317 16.1254 6.542 15.6422L6.54 16.2588L7.3776 16.2598L7.3774 11.5018ZM10.714 14.9214L10.7118 12.436C10.711 11.4888 10.0024 10.9216 9.0406 11.688L9.0448 9.8402L8.003 9.8418L7.998 16.2198L8.8548 16.2074L8.9328 15.8102C10.0274 16.8144 10.7156 16.1262 10.714 14.9214ZM13.9782 14.592L13.1962 14.5962C13.1958 14.6272 13.1946 14.663 13.1942 14.702V15.1384C13.1942 15.372 13.0012 15.5622 12.7668 15.5622H12.6136C12.3788 15.5622 12.1858 15.372 12.1858 15.1384V15.09V14.61V13.9906H13.9766V13.3166C13.9766 12.824 13.964 12.3316 13.9232 12.05C13.795 11.1592 12.5446 11.0178 11.913 11.4738C11.7148 11.6162 11.5634 11.8068 11.4754 12.0628C11.3866 12.319 11.3424 12.669 11.3424 13.1136V14.5956C11.3428 17.0592 14.3352 16.711 13.9782 14.592ZM9.9666 6.5464C10.0204 6.6772 10.104 6.7832 10.2174 6.8632C10.3294 6.942 10.4726 6.9816 10.6442 6.9816C10.7946 6.9816 10.9278 6.941 11.0438 6.8572C11.1594 6.7738 11.2568 6.6492 11.3364 6.483L11.3166 6.8922H12.4792V1.948H11.564V5.796C11.564 6.0044 11.3924 6.175 11.1826 6.175C10.974 6.175 10.8018 6.0044 10.8018 5.796V1.948H9.8466V5.2828C9.8466 5.7076 9.8544 5.9908 9.867 6.1344C9.88 6.277 9.9128 6.4138 9.9666 6.5464ZM6.4434 3.754C6.4434 3.2794 6.483 2.9088 6.5616 2.6416C6.6408 2.3754 6.783 2.1614 6.989 2C7.1944 1.8378 7.4574 1.7566 7.7772 1.7566C8.0462 1.7566 8.2766 1.8094 8.469 1.9128C8.6624 2.0168 8.8116 2.1518 8.915 2.3184C9.0204 2.4856 9.092 2.6574 9.1302 2.8332C9.1692 3.0114 9.1884 3.2802 9.1884 3.6428V4.8932C9.1884 5.3518 9.17 5.6892 9.1342 5.9034C9.0988 6.1182 9.0228 6.3174 8.905 6.5042C8.789 6.689 8.6392 6.8272 8.4576 6.9154C8.274 7.0044 8.064 7.048 7.8268 7.048C7.5618 7.048 7.3386 7.0114 7.1546 6.935C6.97 6.859 6.8274 6.7444 6.7258 6.5922C6.6232 6.4398 6.551 6.2542 6.5074 6.0378C6.4636 5.8216 6.4428 5.4964 6.4428 5.063L6.4434 3.754ZM7.354 5.718C7.354 5.998 7.5624 6.2266 7.8162 6.2266C8.0702 6.2266 8.2778 5.998 8.2778 5.718V3.086C8.2778 2.8064 8.0702 2.5778 7.8162 2.5778C7.5624 2.5778 7.354 2.8064 7.354 3.086V5.718ZM4.1364 7.047H5.2332L5.2344 3.255L6.5304 0.0066H5.3308L4.6418 2.4194L3.943 0H2.7558L4.1346 3.2568L4.1364 7.047Z" fill="#59BC47"/>
</svg>
