<svg width="23" height="26" viewBox="0 0 23 26" fill="none" xmlns="http://www.w3.org/2000/svg">
<path d="M18.9575 19.0181H17.5375L17.5441 18.1893C17.5441 17.821 17.8451 17.5197 18.2128 17.5197H18.3034C18.672 17.5197 18.9738 17.821 18.9738 18.1893L18.9575 19.0181ZM13.6312 17.242C13.271 17.242 12.9763 17.4853 12.9763 17.7831V21.814C12.9763 22.1113 13.271 22.3539 13.6312 22.3539C13.9929 22.3539 14.2879 22.1113 14.2879 21.814V17.7831C14.2879 17.485 13.9929 17.242 13.6312 17.242ZM22.2812 14.9873V22.6555C22.2812 24.4949 20.694 26 18.7536 26H4.24666C2.30575 26 0.71875 24.4949 0.71875 22.6555V14.9873C0.71875 13.1479 2.30575 11.6425 4.24666 11.6425H18.7536C20.694 11.6425 22.2812 13.1479 22.2812 14.9873ZM5.21439 23.4881L5.21324 15.4105L7.01155 15.4111V14.2142L2.21777 14.207V15.3836L3.71421 15.388V23.4881H5.21439ZM10.605 16.6137H9.1057V20.9271C9.1057 21.5511 9.14336 21.8631 9.1034 21.9732C8.9815 22.3077 8.43353 22.663 8.21991 22.0093C8.18369 21.8949 8.2156 21.5497 8.21502 20.9569L8.20899 16.6137H6.71801L6.72261 20.8887C6.72376 21.5439 6.70795 22.0324 6.72779 22.2548C6.7643 22.6469 6.75136 23.1039 7.11333 23.365C7.7878 23.8533 9.08069 23.2922 9.40412 22.5943L9.40125 23.4849L10.6053 23.4864L10.605 16.6137ZM15.4014 21.5531L15.3982 17.9631C15.3971 16.5949 14.3784 15.7756 12.9959 16.8827L13.0019 14.2136L11.5043 14.2159L11.4971 23.4286L12.7288 23.4107L12.8409 22.837C14.4144 24.2875 15.4037 23.2934 15.4014 21.5531ZM20.0937 21.0773L18.9695 21.0834C18.969 21.1282 18.9672 21.1799 18.9667 21.2362V21.8666C18.9667 22.204 18.6892 22.4787 18.3523 22.4787H18.132C17.7945 22.4787 17.5171 22.204 17.5171 21.8666V21.7967V21.1033V20.2086H20.0914V19.2351C20.0914 18.5236 20.0732 17.8123 20.0146 17.4056C19.8303 16.1188 18.0329 15.9146 17.1249 16.5733C16.84 16.779 16.6224 17.0543 16.4959 17.424C16.3682 17.7941 16.3047 18.2997 16.3047 18.9419V21.0825C16.3053 24.6411 20.6068 24.1381 20.0937 21.0773ZM14.327 9.45591C14.4043 9.64484 14.5245 9.79796 14.6875 9.91351C14.8485 10.0273 15.0544 10.0845 15.301 10.0845C15.5172 10.0845 15.7087 10.0259 15.8755 9.90484C16.0416 9.78438 16.1817 9.6044 16.2961 9.36433L16.2676 9.9554H17.9389V2.81378H16.6233V8.372C16.6233 8.67302 16.3766 8.91944 16.075 8.91944C15.7751 8.91944 15.5276 8.67302 15.5276 8.372V2.81378H14.1545V7.63071C14.1545 8.24431 14.1657 8.65338 14.1838 8.8608C14.2025 9.06678 14.2497 9.26438 14.327 9.45591ZM9.26239 5.42244C9.26239 4.73691 9.31931 4.2016 9.4323 3.81564C9.54615 3.43113 9.75056 3.12202 10.0467 2.88889C10.3419 2.6546 10.72 2.53731 11.1797 2.53731C11.5664 2.53731 11.8976 2.61358 12.1742 2.76293C12.4522 2.91316 12.6667 3.10816 12.8153 3.3488C12.9668 3.59031 13.0698 3.83847 13.1247 4.0924C13.1807 4.3498 13.2083 4.73807 13.2083 5.26182V7.06796C13.2083 7.73038 13.1819 8.21773 13.1304 8.52713C13.0795 8.8374 12.9703 9.12513 12.8009 9.39496C12.6342 9.66189 12.4188 9.86151 12.1578 9.98891C11.8939 10.1175 11.592 10.1804 11.251 10.1804C10.8701 10.1804 10.5492 10.1276 10.2847 10.0172C10.0194 9.90744 9.81439 9.74191 9.66834 9.52207C9.52085 9.30193 9.41706 9.03384 9.35439 8.72127C9.29143 8.40898 9.26153 7.93924 9.26153 7.31322L9.26239 5.42244ZM10.5714 8.25933C10.5714 8.66378 10.8709 8.99398 11.2358 8.99398C11.6009 8.99398 11.8993 8.66378 11.8993 8.25933V4.45756C11.8993 4.05369 11.6009 3.72349 11.2358 3.72349C10.8709 3.72349 10.5714 4.05369 10.5714 4.45756V8.25933ZM5.94608 10.179H7.52273L7.52445 4.70167L9.38745 0.00953333H7.66303L6.67259 3.49469L5.66806 0H3.96146L5.94349 4.70427L5.94608 10.179Z" fill="white"/>
</svg>
